<?xml version="1.0" standalone="no"?>
<!DOCTYPE svg PUBLIC "-//W3C//DTD SVG 20010904//EN"
 "http://www.w3.org/TR/2001/REC-SVG-20010904/DTD/svg10.dtd">
<svg version="1.0" xmlns="http://www.w3.org/2000/svg"
 width="700.000000pt" height="700.000000pt" viewBox="0 0 700.000000 700.000000"
 preserveAspectRatio="xMidYMid meet">
<metadata>
Created by potrace 1.14, written by Peter Selinger 2001-2017
</metadata>
<g transform="translate(0.000000,700.000000) scale(0.100000,-0.100000)"
fill="#000000" stroke="none">
<path d="M929 6690 c-190 -18 -310 -71 -431 -192 -58 -58 -86 -96 -117 -160
-82 -166 -76 71 -76 -2838 0 -2410 1 -2591 17 -2670 53 -258 251 -456 508
-508 79 -16 270 -17 2670 -17 2400 0 2591 1 2670 17 258 52 456 250 508 508
16 79 17 270 17 2670 0 2400 -1 2591 -17 2670 -39 194 -168 364 -338 448 -166
82 76 76 -2780 78 -1400 1 -2584 -2 -2631 -6z m1859 -1736 c150 -62 201 -273
94 -388 -15 -16 -245 -174 -512 -351 -336 -223 -500 -338 -532 -373 -72 -77
-122 -161 -154 -259 -27 -81 -29 -100 -28 -228 0 -124 4 -149 27 -220 72 -216
232 -389 439 -472 174 -71 377 -64 539 17 62 32 589 379 627 414 117 106 77
324 -73 396 -37 18 -59 21 -114 18 l-69 -4 -289 -192 c-159 -106 -304 -197
-323 -202 -109 -31 -225 24 -283 134 -44 87 -22 211 50 277 44 41 1940 1297
2013 1334 630 317 1418 -50 1644 -764 75 -238 76 -516 1 -746 -57 -173 -144
-316 -274 -446 -75 -75 -153 -131 -627 -446 -584 -389 -590 -393 -684 -372
-132 29 -222 170 -191 296 7 26 22 63 33 81 15 24 159 126 529 373 463 309
514 345 565 407 161 195 204 458 114 704 -41 113 -93 192 -185 283 -211 210
-530 269 -778 143 -76 -38 -615 -397 -644 -429 -34 -38 -53 -93 -53 -158 0
-152 143 -273 286 -241 32 7 132 67 339 204 318 209 335 218 425 196 185 -44
255 -282 121 -408 -53 -49 -1895 -1274 -2003 -1331 -285 -152 -647 -161 -963
-24 -252 109 -491 336 -617 588 -204 405 -176 879 74 1242 103 150 180 210
748 587 289 192 539 355 555 362 41 18 128 17 173 -2z"/>
</g>
</svg>
