<svg width="512" height="512" viewBox="0 0 512 512" fill="none" xmlns="http://www.w3.org/2000/svg">
<path fill-rule="evenodd" clip-rule="evenodd" d="M290.17 156.712C290.17 155.813 290.159 154.92 290.136 154.03C288.06 153.03 286.125 151.571 284.466 149.643C280.221 144.709 276.542 139.312 273.538 134.905C272.231 132.988 271.053 131.258 270.011 129.836C266.115 124.519 263.456 122.298 260.499 121.498C257.466 120.677 250.595 121.401 240 126.247L240 229C252.234 229 265.735 221.978 274.978 208.924C284.2 195.9 290.17 177.465 290.17 156.712Z" fill="#F3D381"/>
<path d="M240 126.247C229.522 131.04 216.672 139.018 196.609 153.553C195.442 154.398 194.207 155.1 192.929 155.66C192.927 155.926 192.378 156.44 192.378 156.707C192.378 177.46 198.348 195.895 207.57 208.919C216.813 221.974 227.766 229 240 229L240 126.247Z" fill="#F7ECD2"/>
<path fill-rule="evenodd" clip-rule="evenodd" d="M306.779 152.831C310.919 150.06 313.808 145.474 314.278 139.927C316.576 112.762 308.558 93.2053 293.744 80.6632C279.3 68.4352 258.852 64 240 64C201.145 64 160.444 96.1593 168.13 143.054C169.013 148.438 172.181 152.475 176.255 154.848V156.712C176.255 180.385 183.036 202.171 194.428 218.26C205.799 234.32 220.778 245.5 240 245.5C259.222 245.5 277.296 234.32 288.667 218.26C300.06 202.171 306.84 180.385 306.84 156.712C306.84 155.412 306.82 154.119 306.779 152.831ZM290.136 154.03C290.159 154.92 290.17 155.813 290.17 156.712C290.17 177.465 284.2 195.9 274.978 208.924C265.735 221.978 252.234 229 240 229C227.766 229 216.813 221.974 207.57 208.919C198.348 195.895 192.378 177.46 192.378 156.707C192.378 156.44 192.927 155.926 192.929 155.66C194.207 155.1 195.442 154.398 196.609 153.553C216.672 139.018 229.522 131.04 240 126.247C250.595 121.401 257.466 120.677 260.499 121.498C263.456 122.298 266.115 124.519 270.011 129.836C271.053 131.258 272.231 132.988 273.538 134.905C276.542 139.312 280.221 144.709 284.466 149.643C286.125 151.571 288.06 153.03 290.136 154.03Z" fill="#404040"/>
<path d="M187.988 259.491L157.098 264.735C140.322 267.465 128 281.955 128 298.951V328H240V281.5C229.529 281.454 219.703 279.683 210.396 276.132C201.447 272.719 193.126 267.353 187.988 259.491Z" fill="#5895C1"/>
<path d="M128 386.667C128 394.03 133.97 400 141.333 400H190.667H240V328H128V386.667Z" fill="#5895C1"/>
<path d="M322.951 264.689C339.705 267.441 352 281.92 352 298.898V328H368V298.898C368 274.084 350.03 252.922 325.544 248.901L294.171 243.529C287.294 242.4 281.905 246.679 279.456 251.034C277.208 255.033 272.551 258.721 265.456 261.424C258.456 264.09 248.888 265.539 240 265.5V281.5C250.465 281.546 261.977 279.871 271.152 276.375C280 273.005 288.208 267.605 293.01 259.553L322.951 264.689Z" fill="#404040"/>
<path d="M141.333 400C133.97 400 128 394.03 128 386.667V328H112V386.667C112 402.867 125.133 416 141.333 416H240V400H190.667H141.333Z" fill="#404040"/>
<path d="M157.098 264.735L187.988 259.491C193.126 267.353 201.447 272.719 210.396 276.132C219.703 279.683 229.529 281.454 240 281.5V265.5C231.118 265.461 223.317 263.937 216.098 261.183C208.789 258.395 203.742 254.581 201.141 250.359C198.575 246.193 193.314 242.413 186.831 243.468L154.528 248.942C130.01 252.932 112 274.11 112 298.951V328H128V298.951C128 281.955 140.322 267.465 157.098 264.735Z" fill="#404040"/>
<path fill-rule="evenodd" clip-rule="evenodd" d="M322.951 264.689C339.705 267.441 352 281.92 352 298.898V328H308C308 328 305.648 324.534 305.5 322C305.368 319.728 306.956 318.696 308.654 317.594C310.512 316.387 312.5 315.095 312.5 312C312.5 303.163 305.337 296 296.5 296C287.663 296 280.5 303.163 280.5 312C280.5 314.693 282.268 316.031 283.961 317.312C285.587 318.544 287.145 319.722 287 322C286.839 324.533 284.5 328 284.5 328H240V281.5C250.465 281.546 261.977 279.871 271.152 276.375C280 273.005 288.208 267.605 293.01 259.553L322.951 264.689Z" fill="#5895C1"/>
<path d="M408 434.667C408 442.03 402.03 448 394.667 448H296V464H394.667C410.867 464 424 450.867 424 434.667V376H408V434.667Z" fill="#404040"/>
<path fill-rule="evenodd" clip-rule="evenodd" d="M408 434.667C408 442.03 402.03 448 394.667 448H296V427.5C296 427.5 299.466 425.148 302 425C304.272 424.868 305.304 426.456 306.406 428.154C307.613 430.012 308.905 432 312 432C320.837 432 328 424.837 328 416C328 407.163 320.837 400 312 400C309.307 400 307.969 401.768 306.688 403.461C305.456 405.087 304.278 406.645 302 406.5C299.467 406.339 296 404 296 404V376H408V434.667Z" fill="#5895C1"/>
<path d="M352 344C343.163 344 336 351.163 336 360C336 365.279 342.795 365.352 342.5 370C342.339 372.533 340 376 340 376H363.5C363.5 376 361.148 372.534 361 370C360.723 365.241 368 365.922 368 360C368 351.163 360.837 344 352 344Z" fill="#5895C1"/>
<path d="M208 304C208 312.837 215.163 320 224 320C229.279 320 229.352 313.205 234 313.5C236.533 313.661 240 316 240 316L240 292.5C240 292.5 236.534 294.852 234 295C229.241 295.277 229.922 288 224 288C215.163 288 208 295.163 208 304Z" fill="#5895C1"/>
<path d="M184 360C192.837 360 200 352.837 200 344C200 338.721 193.205 338.648 193.5 334C193.661 331.467 196 328 196 328L172.5 328C172.5 328 174.852 331.466 175 334C175.277 338.759 168 338.078 168 344C168 352.837 175.163 360 184 360Z" fill="#5895C1"/>
<path d="M272 368C272 359.163 264.837 352 256 352C250.721 352 250.648 358.795 246 358.5C243.467 358.339 240 356 240 356L240 379.5C240 379.5 243.466 377.148 246 377C250.759 376.723 250.078 384 256 384C264.837 384 272 376.837 272 368Z" fill="#5895C1"/>
</svg>
