<svg width="512" height="512" viewBox="0 0 512 512" fill="none" xmlns="http://www.w3.org/2000/svg">
<rect x="72" y="72" width="368" height="176" rx="56" fill="#8DCBF7" stroke="#1E608F" stroke-width="16"/>
<circle cx="256" cy="160" r="64" fill="#F3D381"/>
<path fill-rule="evenodd" clip-rule="evenodd" d="M240 144H224V288H208V272H160V320H176V336H192V368H208V400H224V432H240V480H400V432.1H384V464H256V432H240V400H224V368H208V336H192V320H176V288H208V304H224V320H240V144ZM272 144V128H240V144H272ZM320 224V208H288V144H272V288H288V224H320ZM368 240V304H384V256H400V272H416V384H400V432H416V384H432V272H416V256H400V240H368Z" fill="#404040"/>
<path d="M320 224V288H336V240H368V224H320Z" fill="#404040"/>
<path d="M272 144H240V320H224V304H208V288H176V320H192V336H208V368H224V400H240V432H256V464H384V432H400C400.167 416 400 384 400 384H416V272H400V256H384V304H368V240H336V288H320V224H288V288H272V144Z" fill="#F8F7F3"/>
</svg>
