<svg width="512" height="512" viewBox="0 0 512 512" fill="none" xmlns="http://www.w3.org/2000/svg">
<mask id="path-1-inside-1_39_352" fill="white">
<rect x="64" y="72" width="384" height="184" rx="8"/>
</mask>
<rect x="64" y="72" width="384" height="184" rx="8" fill="#F7ECD2" stroke="#2D7BB3" stroke-width="32" mask="url(#path-1-inside-1_39_352)"/>
<rect x="48" y="56" width="48" height="48" fill="#F8F7F3" stroke="#2D7BB3" stroke-width="16"/>
<rect x="416" y="56" width="48" height="48" fill="#F8F7F3" stroke="#2D7BB3" stroke-width="16"/>
<rect x="416" y="224" width="48" height="48" fill="#F8F7F3" stroke="#2D7BB3" stroke-width="16"/>
<rect x="48" y="224" width="48" height="48" fill="#F8F7F3" stroke="#2D7BB3" stroke-width="16"/>
<path d="M224 160H256V176H240V400H256V416H224V160Z" fill="#404040"/>
<path d="M272 384V400H256V384H272Z" fill="#404040"/>
<path d="M288 368V384H272V368H288Z" fill="#404040"/>
<path d="M304 368V352H288V368H304Z" fill="#404040"/>
<path d="M320 400H304V368H320V400Z" fill="#404040"/>
<path d="M336 432H320V400H336V432Z" fill="#404040"/>
<path d="M368 432V448H336V432H368Z" fill="#404040"/>
<path d="M368 400H384V432H368V400Z" fill="#404040"/>
<path d="M352 368H368V400H352V368Z" fill="#404040"/>
<path d="M400 320H416V352H352V368H336V336H400V320Z" fill="#404040"/>
<path d="M384 304H400V320H384V304Z" fill="#404040"/>
<path d="M368 288H384V304H368V288Z" fill="#404040"/>
<path d="M352 272H368V288H352V272Z" fill="#404040"/>
<path d="M336 256H352V272H336V256Z" fill="#404040"/>
<path d="M320 240H336V256H320V240Z" fill="#404040"/>
<path d="M304 224H320V240H304V224Z" fill="#404040"/>
<path d="M288 208H304V224H288V208Z" fill="#404040"/>
<path d="M272 192H288V208H272V192Z" fill="#404040"/>
<path d="M272 192V176H256V192H272Z" fill="#404040"/>
<path d="M256 176H240V400H256V384H272V368H288V352H304V368H320V400H336V432H368V400H352V368H336V336H400V320H384V304H368V288H352V272H336V256H320V240H304V224H288V208H272V192H256V176Z" fill="#F8F7F3"/>
</svg>
