<svg width="512" height="512" viewBox="0 0 512 512" fill="none" xmlns="http://www.w3.org/2000/svg">
<path d="M297.788 186.759L310.533 195.021L371 222L334.5 268.786L328.842 282.772L319.5 348.5L266.094 328.361L251.728 328.5L191.5 346L188.98 282.911L184.464 269.01L151.5 224.5L208.431 195.246L220.227 186.759L254.5 142.5L297.788 186.759Z" fill="#F3D381"/>
<path d="M211.771 199.305L203.444 224.931C203.164 225.792 202.341 226.358 201.437 226.31L158.11 224.03C156.069 223.922 155.2 226.583 156.91 227.701L193.27 251.466C194.026 251.96 194.357 252.899 194.078 253.758L185.909 278.9L186.716 281.374L208.515 297.212C209.247 297.745 209.531 298.702 209.206 299.548L193.648 340.049C192.916 341.957 195.178 343.606 196.769 342.324L230.606 315.088C231.31 314.522 232.306 314.497 233.036 315.028L254.423 330.567L256.777 330.425L278.576 314.587C279.308 314.055 280.307 314.081 281.01 314.651L314.722 341.963C316.31 343.25 318.577 341.608 317.85 339.698L302.403 299.101C302.082 298.257 302.366 297.302 303.097 296.771L324.484 281.233L326.427 278.671L318.1 253.044C317.821 252.183 318.154 251.242 318.914 250.749L355.307 227.127C357.021 226.014 356.16 223.351 354.119 223.452L310.735 225.597C309.833 225.642 309.013 225.077 308.734 224.218L300.565 199.076L297.537 197.877H270.592C269.686 197.877 268.894 197.269 268.66 196.394L257.44 154.483C256.912 152.509 254.112 152.505 253.578 154.477L242.212 196.4C241.976 197.272 241.185 197.877 240.282 197.877H213.846L211.771 199.305Z" fill="#F3D381" stroke="#1E608F" stroke-width="24"/>
<path d="M206.987 62.0295C207.893 62.0295 208.685 62.6377 208.919 63.5123L225.467 125.328C225.996 127.303 228.798 127.305 229.33 125.331L246.002 63.5088C246.237 62.6359 247.029 62.0295 247.933 62.0295H264.005C264.912 62.0295 265.706 62.64 265.938 63.5168L282.495 125.939C283.02 127.92 285.83 127.923 286.36 125.944L303.08 63.4828C303.315 62.6082 304.107 62 305.012 62H333.388C334.705 62 335.662 63.2505 335.319 64.5217L299.656 196.522C299.42 197.394 298.629 198 297.725 198H270.78C269.874 198 269.082 197.392 268.848 196.517L257.628 154.606C257.1 152.632 254.301 152.628 253.766 154.6L242.4 196.523C242.164 197.395 241.373 198 240.47 198H214.034C213.129 198 212.337 197.392 212.102 196.519L176.676 64.548C176.335 63.2776 177.292 62.0295 178.608 62.0295L206.987 62.0295Z" fill="#2D7BB3"/>
<path d="M427.891 150.48C428.171 151.341 427.838 152.283 427.078 152.776L373.402 187.616C371.687 188.729 372.55 191.394 374.592 191.291L438.541 188.042C439.444 187.996 440.265 188.562 440.544 189.422L445.511 204.707C445.791 205.57 445.456 206.513 444.694 207.005L390.443 242.041C388.721 243.152 389.587 245.826 391.633 245.718L456.204 242.319C457.108 242.271 457.931 242.837 458.211 243.698L466.979 270.685C467.386 271.937 466.493 273.234 465.178 273.3L328.618 280.173C327.715 280.219 326.894 279.653 326.615 278.794L318.289 253.167C318.009 252.306 318.343 251.365 319.102 250.872L355.495 227.25C357.209 226.137 356.348 223.474 354.307 223.575L310.923 225.72C310.021 225.765 309.201 225.2 308.922 224.341L300.753 199.199C300.474 198.338 300.807 197.397 301.565 196.904L416.129 122.43C417.232 121.713 418.715 122.238 419.122 123.489L427.891 150.48Z" fill="#5895C1"/>
<path d="M54.6038 243.707C54.8836 242.846 55.7069 242.281 56.6111 242.328L120.515 245.692C122.556 245.8 123.425 243.136 121.712 242.019L68.0668 207.059C67.3094 206.566 66.9773 205.626 67.2567 204.766L72.2233 189.48C72.5036 188.617 73.3294 188.051 74.2352 188.101L138.718 191.645C140.764 191.757 141.636 189.086 139.917 187.97L85.6803 152.766C84.9209 152.274 84.5873 151.332 84.8671 150.471L93.6356 123.484C94.0425 122.232 95.5276 121.708 96.6305 122.427L211.15 197.135C211.906 197.629 212.238 198.568 211.959 199.428L203.632 225.054C203.353 225.915 202.529 226.481 201.625 226.434L158.298 224.153C156.258 224.045 155.388 226.706 157.099 227.824L193.458 251.589C194.214 252.083 194.545 253.022 194.266 253.881L186.097 279.023C185.817 279.884 184.995 280.449 184.091 280.402L47.6323 273.313C46.3186 273.245 45.4274 271.949 45.8339 270.698L54.6038 243.707Z" fill="#5895C1"/>
<path d="M180.391 444.834C179.658 444.302 179.375 443.344 179.699 442.499L202.646 382.763C203.379 380.854 201.114 379.205 199.523 380.489L149.697 420.705C148.993 421.273 147.997 421.298 147.265 420.767L134.262 411.32C133.529 410.787 133.245 409.826 133.573 408.98L156.869 348.748C157.608 346.837 155.337 345.183 153.745 346.473L103.504 387.176C102.801 387.746 101.802 387.772 101.07 387.24L78.1134 370.562C77.0481 369.788 77.0085 368.213 78.0335 367.387L184.473 281.559C185.176 280.991 186.173 280.966 186.904 281.497L208.703 297.335C209.436 297.868 209.719 298.825 209.395 299.671L193.837 340.172C193.104 342.08 195.366 343.729 196.958 342.447L230.795 315.211C231.498 314.645 232.494 314.62 233.224 315.151L254.612 330.69C255.344 331.222 255.627 332.179 255.304 333.024L206.394 460.613C205.923 461.841 204.415 462.289 203.351 461.515L180.391 444.834Z" fill="#8DCBF7"/>
<path d="M410.295 387.216C409.562 387.749 408.563 387.722 407.86 387.152L358.138 346.869C356.55 345.582 354.281 347.227 355.011 349.137L377.862 408.952C378.184 409.796 377.9 410.752 377.169 411.284L364.166 420.731C363.432 421.264 362.432 421.236 361.728 420.664L311.643 379.895C310.054 378.601 307.778 380.25 308.513 382.163L331.699 442.523C332.024 443.368 331.741 444.326 331.008 444.858L308.052 461.537C306.987 462.311 305.477 461.862 305.008 460.631L256.272 332.879C255.95 332.035 256.234 331.079 256.965 330.548L278.764 314.71C279.496 314.178 280.495 314.204 281.199 314.774L314.91 342.087C316.498 343.373 318.765 341.731 318.039 339.821L302.592 299.224C302.27 298.38 302.555 297.425 303.285 296.895L324.672 281.356C325.405 280.824 326.402 280.85 327.106 281.419L433.337 367.362C434.359 368.19 434.319 369.762 433.254 370.535L410.295 387.216Z" fill="#8DCBF7"/>
<path fill-rule="evenodd" clip-rule="evenodd" d="M305.013 56C301.391 56 298.221 58.4329 297.285 61.9313L284.446 109.891L271.738 61.9786C270.808 58.4715 267.634 56.0295 264.006 56.0295H247.933C244.317 56.0295 241.151 58.4552 240.209 61.9466L227.414 109.395L214.716 61.9608C213.779 58.4624 210.609 56.0295 206.988 56.0295L178.608 56.0295C173.346 56.0295 169.517 61.0218 170.882 66.1036L202.643 184.421L99.9087 117.402C95.4974 114.524 89.5569 116.621 87.9293 121.63L79.1608 148.617C78.0417 152.061 79.3759 155.828 82.4137 157.799L124.059 184.83L74.5644 182.11C70.9415 181.911 67.6382 184.175 66.5169 187.626L61.5503 202.912C60.4329 206.351 61.7614 210.112 64.7909 212.086L105.963 238.918L56.9265 236.336C53.3099 236.146 50.0166 238.409 48.8975 241.853L40.1276 268.844C38.5016 273.848 42.0664 279.032 47.321 279.305L169.817 285.669L74.2673 362.716C70.1672 366.022 70.3255 372.32 74.5867 375.416L97.5429 392.094C100.473 394.223 104.467 394.118 107.281 391.838L145.858 360.584L127.977 406.816C126.668 410.2 127.8 414.041 130.736 416.174L143.739 425.621C146.664 427.746 150.652 427.645 153.465 425.374L191.707 394.508L174.098 440.347C172.8 443.728 173.934 447.559 176.864 449.688L199.824 466.369C204.081 469.462 210.113 467.674 211.996 462.761L255.803 348.484L299.402 462.77C301.279 467.691 307.317 469.487 311.578 466.391L334.535 449.712C337.465 447.583 338.599 443.752 337.3 440.371L319.497 394.024L357.94 425.317C360.754 427.608 364.757 427.717 367.693 425.585L380.696 416.138C383.621 414.012 384.757 410.189 383.466 406.811L365.929 360.903L404.083 391.814C406.897 394.094 410.891 394.199 413.821 392.071L436.781 375.389C441.038 372.297 441.201 366.007 437.11 362.698L341.716 285.522L465.479 279.293C470.74 279.028 474.313 273.84 472.686 268.831L463.917 241.844C462.798 238.4 459.505 236.137 455.888 236.327L406.308 238.937L447.949 212.046C450.997 210.077 452.338 206.304 451.217 202.853L446.251 187.567C445.133 184.128 441.848 181.866 438.236 182.05L389.156 184.543L430.345 157.808C433.382 155.837 434.717 152.07 433.598 148.626L424.828 121.635C423.202 116.631 417.271 114.532 412.859 117.4L309.009 184.909L341.111 66.0866C342.485 61.0018 338.655 56 333.388 56H305.013ZM308.083 68L292.156 127.495C290.036 135.413 278.797 135.4 276.696 127.477L260.928 68.0295H250.998L235.124 126.893C232.994 134.79 221.787 134.78 219.672 126.879L203.918 68.0295L183.823 68.0295L217.102 192C218.5 198 213 204.5 205.306 200.487L97.7276 130.307L91.5221 149.405L143.184 182.937C150.059 187.4 146.573 198.085 138.389 197.636L76.9787 194.261L73.9099 203.706L124.988 236.993C131.84 241.458 128.367 252.114 120.199 251.684L59.3614 248.481L53.1519 267.592L181.339 274.251C191.707 275 193.5 281.5 185.855 288.152L85.8665 368.778L102.113 380.582L149.968 341.811C156.337 336.651 165.422 343.268 162.465 350.913L140.279 408.275L148.313 414.112L195.755 375.82C202.119 370.683 211.18 377.279 208.247 384.914L186.401 441.784L202.658 453.596L248.603 333.741C252 324 259 324 262.969 333.602L308.751 453.612L324.997 441.808L302.912 384.314C299.973 376.663 309.074 370.067 315.43 375.241L363.129 414.068L371.163 408.231L349.406 351.278C346.487 343.638 355.56 337.059 361.915 342.207L409.251 380.558L425.508 368.747L325.717 288.013C318 281.5 321 274.251 331.375 274.027L459.659 267.571L453.453 248.472L391.948 251.71C383.763 252.141 380.302 241.447 387.188 237L438.854 203.635L435.785 194.19L374.897 197.283C366.728 197.698 363.275 187.036 370.135 182.583L421.236 149.414L415.027 130.303L307.408 200.262C300 205.5 292.5 198.5 294.663 192L328.164 68H308.083Z" fill="#404040"/>
</svg>
