<svg width="512" height="512" viewBox="0 0 512 512" fill="none" xmlns="http://www.w3.org/2000/svg">
<path d="M327.123 115.554C318.235 126.831 320.736 157.592 320.736 157.592L329.474 164.477C335.163 132.888 343.486 125.268 354.709 114.994C364.231 106.276 375.84 95.648 389.7 66.8468C376.459 86.8916 363.319 93.0005 351.371 98.5554C342.478 102.69 334.246 106.517 327.123 115.554Z" fill="#F3D381"/>
<path fill-rule="evenodd" clip-rule="evenodd" d="M337.17 170.644C375.779 126.481 380.954 104.31 388.816 70.627C389.106 69.3832 389.4 68.1237 389.7 66.8468C375.84 95.648 364.231 106.276 354.709 114.994C343.486 125.268 335.163 132.888 329.474 164.477L337.17 170.644Z" fill="#DEAF3F"/>
<path d="M337.17 170.644L345.799 177.342C382.224 156.318 392.647 133.065 389.7 66.8468C389.4 68.1237 389.106 69.3832 388.816 70.627C380.954 104.31 375.779 126.481 337.17 170.644Z" fill="#BC922E"/>
<path d="M377.911 175.511C400.515 157.328 411.891 138.05 389.7 66.8468C392.647 133.065 382.224 156.318 345.799 177.342L351.369 181.73C351.369 181.73 366.654 184.567 377.911 175.511Z" fill="#A17C23"/>
<path d="M294.106 205.714L310.899 218.947L310.814 219.131C309.508 221.95 307.69 225.905 305.637 230.453C301.541 239.528 296.477 251.049 292.7 260.635C286.342 276.77 274.324 294.855 259.542 313.09C244.814 331.258 227.597 349.266 211.136 365.236C194.686 381.196 179.056 395.057 167.537 404.93C161.779 409.865 157.054 413.798 153.773 416.494C152.234 417.758 151.014 418.75 150.153 419.445C149.231 419.469 148.037 419.463 146.751 419.365C143.546 419.12 141.279 418.403 140.356 417.61C139.493 416.868 138.466 414.925 137.681 412.13C137.379 411.055 137.165 410.045 137.02 409.246C137.503 408.251 138.202 406.821 139.102 405.006C140.983 401.211 143.74 395.734 147.235 389.023C154.227 375.598 164.159 357.264 175.92 337.617C199.631 298.009 230.149 254.163 258.591 233.66C266.914 227.66 276.749 219.873 284.454 213.629C288.317 210.499 291.666 207.739 294.049 205.761L294.106 205.714Z" fill="#808080"/>
<path d="M308.5 201.778L329.581 172.251L326.148 169.5L306 199.808L308.5 201.778Z" fill="#F8F7F3"/>
<path d="M317.722 209.045L342.537 182.409L342.104 182.068L333.492 175.384L333.453 175.353L333.419 175.326L329.581 172.251L308.5 201.778L317.722 209.045Z" fill="#B0B0B0"/>
<path d="M322.143 166.339L302.05 196.695L306 199.808L326.148 169.5L325.742 169.175L322.143 166.339Z" fill="#F8F7F3"/>
<path fill-rule="evenodd" clip-rule="evenodd" d="M395.429 65.0616C394.739 62.8491 392.837 61.2315 390.543 60.9063C388.248 60.581 385.972 61.6062 384.694 63.5399C373.912 79.8623 363.421 86.1227 353.4 90.9674C351.967 91.6605 350.503 92.3375 349.019 93.0237C340.11 97.1445 330.487 101.595 322.412 111.84C319.379 115.688 317.618 120.741 316.526 125.551C315.408 130.471 314.859 135.74 314.606 140.482C314.352 145.247 314.389 149.621 314.488 152.797C314.527 154.046 314.576 155.117 314.622 155.961L289.474 193.953L289.146 194.228C288.503 194.766 287.565 195.549 286.387 196.526C284.031 198.481 280.719 201.211 276.899 204.306C269.237 210.515 259.614 218.13 251.574 223.926C220.883 246.05 189.265 291.962 165.624 331.453C153.71 351.356 143.661 369.907 136.592 383.48C133.056 390.269 130.262 395.819 128.35 399.677C127.394 401.606 126.658 403.112 126.16 404.139C125.92 404.632 125.682 405.125 125.446 405.619C124.695 407.309 124.81 409.045 125.131 410.924C125.325 412.063 125.64 413.637 126.127 415.373C127.01 418.516 128.799 423.5 132.535 426.711C136.589 430.195 142.305 431.061 145.838 431.33C147.797 431.48 149.554 431.473 150.818 431.43C151.455 431.409 151.978 431.378 152.354 431.351C152.572 431.336 152.791 431.319 153.009 431.297C154.323 431.137 155.02 430.874 156.145 430.024C156.265 429.929 156.384 429.833 156.503 429.738C156.736 429.552 157.078 429.277 157.524 428.917C158.416 428.197 159.722 427.137 161.391 425.766C164.729 423.023 169.518 419.036 175.346 414.042C186.997 404.056 202.819 390.025 219.492 373.849C236.155 357.683 253.733 339.311 268.864 320.647C283.941 302.048 296.845 282.848 303.864 265.034C307.531 255.728 312.499 244.42 316.575 235.389C318.607 230.885 320.409 226.967 321.702 224.176C322.349 222.781 322.867 221.669 323.224 220.906L323.378 220.578L353.7 188.031C355.536 188.164 358.033 188.229 360.903 187.997C366.814 187.519 374.772 185.738 381.673 180.186C393.492 170.679 403.245 160.159 406.509 142.13C409.673 124.654 406.591 100.875 395.429 65.0616ZM302.05 196.695L322.143 166.339L325.742 169.175L326.148 169.5L329.581 172.251L333.419 175.326L333.453 175.353L333.492 175.384L342.104 182.068L342.537 182.409L317.722 209.045L308.5 201.778L306 199.808L302.05 196.695ZM353.788 175.997C353.974 176.015 354.177 176.033 354.396 176.05C355.759 176.155 357.698 176.217 359.936 176.036C364.482 175.669 369.795 174.341 374.151 170.836C384.936 162.161 392.174 153.95 394.701 139.993C397.033 127.11 395.461 108.747 387.359 80.0198C377.49 91.6968 367.694 97.3856 358.623 101.771C356.923 102.593 355.292 103.355 353.724 104.088C344.874 108.223 338.016 111.428 331.837 119.268C330.425 121.059 329.166 124.08 328.227 128.209C327.314 132.228 326.822 136.764 326.589 141.122C326.358 145.457 326.39 149.478 326.483 152.422C326.507 153.216 326.536 153.929 326.565 154.545L333.189 159.765L333.227 159.795L340.887 165.932L349.479 172.602L349.514 172.629L353.788 175.997ZM310.899 218.947L294.106 205.714L294.049 205.761C291.666 207.739 288.317 210.499 284.454 213.629C276.749 219.873 266.914 227.66 258.591 233.66C230.149 254.163 199.631 298.009 175.92 337.617C164.159 357.264 154.227 375.598 147.235 389.023C143.74 395.734 140.983 401.211 139.102 405.006C138.202 406.821 137.503 408.251 137.02 409.246C137.165 410.045 137.379 411.055 137.681 412.13C138.466 414.925 139.493 416.868 140.356 417.61C141.279 418.403 143.546 419.12 146.751 419.365C148.037 419.463 149.231 419.469 150.153 419.445C151.014 418.75 152.234 417.758 153.773 416.494C157.054 413.798 161.779 409.865 167.537 404.93C179.056 395.057 194.686 381.196 211.136 365.236C227.597 349.266 244.814 331.258 259.542 313.09C274.324 294.855 286.342 276.77 292.7 260.635C296.477 251.049 301.541 239.528 305.637 230.453C307.69 225.905 309.508 221.95 310.814 219.131L310.899 218.947Z" fill="#404040"/>
<path d="M148.799 165.014L360.904 418.759L380.852 402.084L168.748 148.339C164.948 159.05 160.661 162.74 148.799 165.014Z" fill="#5895C1"/>
<path d="M183.326 136.154L144.328 114.447L119.776 134.97L134.221 177.2C142.374 174.966 145.493 172.241 148.799 165.014C160.661 162.74 164.948 159.05 168.748 148.339C176.749 146.154 179.982 143.484 183.326 136.154Z" fill="#F7ECD2"/>
<path d="M144.328 114.447L105.33 92.741L119.776 134.97L144.328 114.447Z" fill="#808080"/>
<path d="M395.43 389.898L183.326 136.154C179.982 143.484 176.749 146.154 168.748 148.339L380.852 402.084L395.43 389.898Z" fill="#8DCBF7"/>
<path d="M134.221 177.2L346.326 430.944L360.904 418.759L148.799 165.014C145.493 172.241 142.374 174.966 134.221 177.2Z" fill="#2D7BB3"/>
<path fill-rule="evenodd" clip-rule="evenodd" d="M100.497 88.3092C102.402 86.7163 105.092 86.4622 107.263 87.6701L185.258 131.083C185.901 131.44 186.472 131.913 186.944 132.477L399.048 386.222C400.069 387.443 400.563 389.019 400.421 390.604C400.279 392.189 399.514 393.653 398.293 394.674L349.189 435.72C346.646 437.845 342.862 437.507 340.737 434.964L128.633 181.22C128.161 180.655 127.797 180.009 127.559 179.313L98.6676 94.8547C97.8637 92.5047 98.5909 89.9022 100.497 88.3092ZM115.079 105.754L136.925 169.617C137.548 169.273 138.048 168.924 138.477 168.563C139.71 167.524 140.865 165.954 142.358 162.69C143.165 160.924 144.778 159.659 146.684 159.293C152.266 158.223 155.095 156.979 156.952 155.419C158.775 153.887 160.345 151.474 162.108 146.505C162.765 144.653 164.287 143.24 166.182 142.723C169.839 141.724 171.69 140.795 172.955 139.74C173.336 139.423 173.711 139.054 174.091 138.601L115.079 105.754ZM183.075 146.559C182.337 147.413 181.532 148.213 180.641 148.955C178.205 150.987 175.431 152.342 172.319 153.397C170.476 157.871 168.178 161.659 164.671 164.606C161.148 167.567 156.89 169.267 151.904 170.449C150.399 173.245 148.631 175.699 146.209 177.74C145.246 178.551 144.228 179.256 143.153 179.88L346.096 422.665L385.993 389.315L183.075 146.559Z" fill="#404040"/>
</svg>
