<svg width="512" height="512" viewBox="0 0 512 512" fill="none" xmlns="http://www.w3.org/2000/svg">
<path d="M72 153V82.2445C72 78.0189 75.3386 74.5164 79.5574 74.2762C220.713 66.2394 296.065 82.658 433.308 75.1674C437.415 74.9432 440.896 78.2676 440.775 82.3787L438.956 144.303C441.255 181.79 443.457 205.506 442.118 238.039C441.674 248.814 432.915 257.196 422.133 257.421C367.442 258.563 205.178 261.377 86.5524 257.516C78.605 257.258 72.5397 250.401 73.002 242.462C74.8705 210.38 73.6934 188.51 72 153ZM72 153C139.171 151.105 182.277 148.073 248.5 152" stroke="#808080" stroke-width="16"/>
<rect x="252.93" y="151.543" width="26.4146" height="62.4684" rx="13.2073" transform="rotate(-30 252.93 151.543)" fill="#404040"/>
<path d="M274.913 184.694C269.774 187.661 267.307 193.009 269.403 196.638L288.374 229.498L279.069 234.87L400.486 445.17L456.315 412.937L334.898 202.637L325.593 208.009L306.622 175.15C304.526 171.52 298.662 170.983 293.523 173.95L274.913 184.694Z" fill="#8DCBF7"/>
<path d="M288.374 229.498L269.403 196.638C267.307 193.009 269.774 187.661 274.913 184.694L293.523 173.95C298.662 170.983 304.526 171.52 306.622 175.15L325.593 208.009M288.374 229.498L279.069 234.87L400.486 445.17L456.315 412.937L334.898 202.637L325.593 208.009M288.374 229.498L325.593 208.009" stroke="#404040" stroke-width="16" stroke-linejoin="round"/>
<rect x="407.064" y="440.399" width="48.3006" height="23.6083" rx="8" transform="rotate(-30 407.064 440.399)" fill="#404040"/>
<rect x="290.06" y="237.783" width="16.0637" height="226.827" transform="rotate(-30 290.06 237.783)" fill="#5895C1"/>
<rect x="276.395" y="192.982" width="13.9137" height="29.6672" transform="rotate(-30 276.395 192.982)" fill="#5895C1"/>
<rect x="381.567" y="363.988" width="32.2792" height="39.3138" transform="rotate(-30 381.567 363.988)" fill="#F3D381"/>
<rect x="367.521" y="372.066" width="16.3037" height="39.3284" transform="rotate(-30 367.521 372.066)" fill="#DEAF3F"/>
</svg>
