<svg width="512" height="512" viewBox="0 0 512 512" fill="none" xmlns="http://www.w3.org/2000/svg">
<path d="M368 224C368 249.691 355.302 268.02 340.354 283.888C336.604 287.869 332.822 291.583 329.053 295.275L328.689 295.632C325.136 299.112 321.469 302.704 318.258 306.173C314.966 309.729 311.587 313.751 308.99 318.127C306.382 322.522 304 328.211 304 334.876V335.007V335.136V335.266V335.394V335.521V335.648V335.774V335.899V336.023V336.147V336.269V336.391V336.512V336.632V336.752V336.871V336.989V337.106V337.222V337.338V337.453V337.567V337.68V337.793V337.904V338.015V338.126V338.235V338.344V338.452V338.559V338.666V338.772V338.877V338.981V339.084V339.187V339.289V339.391V339.491V339.591V339.69V339.789V339.886V339.983V340.08V340.175V340.27V340.364V340.458V340.55V340.642V340.734V340.824V340.914V341.003V341.092V341.18V341.267V341.353V341.439V341.524V341.609V341.692V341.775V341.858V341.939V342.02V342.101V342.181V342.26V342.338V342.416V342.493V342.569V342.645V342.72V342.795V342.868V342.942V343.014V343.086V343.157V343.228V343.298V343.367V343.436V343.504V343.572V343.639V343.705V343.77V343.835V343.9V343.964V344C304 348.418 300.418 352 296 352H216C211.582 352 208 348.418 208 344V343.952V343.885V343.818V343.75V343.681V343.612V343.542V343.471V343.4V343.328V343.255V343.182V343.108V343.034V342.959V342.883V342.806V342.729V342.651V342.573V342.494V342.414V342.333V342.252V342.17V342.088V342.004V341.92V341.836V341.75V341.664V341.578V341.49V341.402V341.313V341.224V341.133V341.042V340.951V340.858V340.765V340.671V340.577V340.481V340.385V340.289V340.191V340.093V339.994V339.894V339.794V339.693V339.591V339.488V339.385V339.28V339.176V339.07V338.963V338.856V338.748V338.639V338.53V338.42V338.309V338.197V338.084V337.971V337.857V337.742V337.626V337.509V337.392V337.274V337.155V337.035V336.915V336.793V336.671V336.548V336.425V336.3V336.175V336.049V335.922V335.794V335.665V335.536V335.405V335.274V335.142V335.01V334.876C208 328.226 205.673 322.521 203.066 318.058C200.475 313.622 197.097 309.552 193.794 305.948C190.491 302.345 186.716 298.631 183.068 295.042L182.971 294.947C179.191 291.228 175.405 287.503 171.646 283.513C156.655 267.599 144 249.403 144 224C144 162.144 194.144 112 256 112C317.856 112 368 162.144 368 224Z" fill="#F3D381" stroke="#F7ECD2" stroke-width="32"/>
<path d="M320 334.876C320 312.5 384 287.5 384 224C384 153.308 326.692 96 256 96C185.308 96 128 153.308 128 224C128 287 192 312 192 334.876C192 357.752 192 344 192 344C192 357.255 202.745 368 216 368H296C309.255 368 320 357.255 320 344C320 344 320 357.252 320 334.876Z" stroke="#404040" stroke-width="16"/>
<path d="M304 370H208V384L304 376V370Z" fill="#8DCBF7"/>
<path d="M208 400L304 392V376L208 384V400Z" fill="#5895C1"/>
<path d="M208 416L304 408V392L208 400V416Z" fill="#8DCBF7"/>
<path d="M248 450H264C267.138 447.773 271.392 445.494 275.957 443.049C282.094 439.761 288.794 436.172 294.106 432H217.894C223.206 436.172 229.906 439.761 236.043 443.049C240.608 445.494 244.862 447.773 248 450Z" fill="#8DCBF7"/>
<path fill-rule="evenodd" clip-rule="evenodd" d="M217.894 432C212.13 427.472 208 422.259 208 416L304 408V416C304 418.876 303.128 421.531 301.627 424L217.894 432Z" fill="#5895C1"/>
<path d="M217.894 432H294.106C297.222 429.553 299.86 426.905 301.627 424L217.894 432Z" fill="#8DCBF7"/>
<path d="M208 368H304V414C304 430.316 275.935 439.53 264 448H248C236.065 439.53 208 430.316 208 414V368Z" stroke="#404040" stroke-width="16" stroke-linejoin="round"/>
<path d="M240 152.5C208 152.5 184.5 184 184.5 216" stroke="#F8F7F3" stroke-width="16" stroke-linecap="round" stroke-linejoin="round"/>
<ellipse cx="256" cy="44" rx="8" ry="20" fill="#B0B0B0"/>
<ellipse cx="329.444" cy="61.4993" rx="8" ry="18.8875" transform="rotate(30 329.444 61.4993)" fill="#B0B0B0"/>
<ellipse cx="183.292" cy="62.7718" rx="8" ry="17.4182" transform="rotate(-30 183.292 62.7718)" fill="#B0B0B0"/>
<ellipse cx="388.469" cy="99.951" rx="8" ry="22.0307" transform="rotate(47.8254 388.469 99.951)" fill="#B0B0B0"/>
<ellipse cx="124.476" cy="100.809" rx="8" ry="20.7538" transform="rotate(-47.83 124.476 100.809)" fill="#B0B0B0"/>
<ellipse cx="424" cy="168" rx="16" ry="8" transform="rotate(-18.3737 424 168)" fill="#B0B0B0"/>
<ellipse cx="18.4094" cy="8" rx="18.4094" ry="8" transform="matrix(-0.951521 -0.307585 -0.307585 0.951521 105.685 165.309)" fill="#B0B0B0"/>
<ellipse cx="432" cy="240" rx="16" ry="8" transform="rotate(8.06266 432 240)" fill="#B0B0B0"/>
<ellipse cx="79.4998" cy="240" rx="16.5" ry="8" transform="rotate(-6.53728 79.4998 240)" fill="#B0B0B0"/>
<ellipse cx="400" cy="312" rx="16" ry="8" transform="rotate(28 400 312)" fill="#B0B0B0"/>
<ellipse cx="112" cy="312" rx="16" ry="8" transform="rotate(-28 112 312)" fill="#B0B0B0"/>
</svg>
