<svg width="512" height="512" viewBox="0 0 512 512" fill="none" xmlns="http://www.w3.org/2000/svg">
<path d="M392.102 437.508C393.478 441.707 391.19 446.226 386.992 447.602C382.793 448.978 378.274 446.69 376.898 442.492L264 98.0878V416C264 420.418 260.418 424 256 424C251.582 424 248 420.418 248 416V98.4612L136.108 442.474C134.741 446.676 130.227 448.974 126.026 447.608C121.824 446.241 119.526 441.727 120.893 437.526L246.199 53.5183C247.273 50.227 250.343 48 253.805 48H258.21C261.665 48 264.73 50.2184 265.809 53.5007L392.102 437.508Z" fill="#808080"/>
<rect x="72" y="105" width="368" height="263" rx="32" fill="#F8F7F3"/>
<path fill-rule="evenodd" clip-rule="evenodd" d="M432 136C432 122.745 421.255 112 408 112L104 112C90.7452 112 80 122.745 80 136L80 336C80 349.255 90.7451 360 104 360L408 360C421.255 360 432 349.255 432 336L432 278L448 278L448 336C448 358.091 430.091 376 408 376L104 376C81.9086 376 64 358.091 64 336L64 136C64 113.909 81.9086 96 104 96L408 96C430.091 96 448 113.909 448 136L448 278L432 278L432 136Z" fill="#404040"/>
<rect x="224" y="192" width="144" height="24" fill="#F3D381"/>
<path d="M148 180L160 196L180 164" stroke="#5895C1" stroke-width="8" stroke-linecap="round" stroke-linejoin="round"/>
<rect x="132" y="148" width="64" height="64" stroke="#808080" stroke-width="8"/>
<rect x="232" y="152" width="104" height="8" fill="#808080"/>
<rect x="232" y="176" width="152" height="8" fill="#808080"/>
<rect x="232" y="200" width="128" height="8" fill="#808080"/>
<rect x="224" y="280" width="120" height="24" fill="#F3D381"/>
<path d="M148 292L160 308L180 276" stroke="#5895C1" stroke-width="8" stroke-linecap="round" stroke-linejoin="round"/>
<rect x="132" y="260" width="64" height="64" stroke="#808080" stroke-width="8"/>
<rect x="232" y="264" width="120" height="8" fill="#808080"/>
<rect x="232" y="288" width="104" height="8" fill="#808080"/>
<rect x="232" y="312" width="161" height="8" fill="#808080"/>
</svg>
