<svg width="512" height="512" viewBox="0 0 512 512" fill="none" xmlns="http://www.w3.org/2000/svg">
<path d="M112 104C112 90.7452 122.745 80 136 80H376C389.255 80 400 90.7452 400 104V424C400 437.255 389.255 448 376 448H136C122.745 448 112 437.255 112 424V104Z" fill="#B0B0B0"/>
<rect x="128" y="88" width="256" height="344" fill="#F8F7F3"/>
<path fill-rule="evenodd" clip-rule="evenodd" d="M136 80C122.745 80 112 90.7452 112 104V424C112 437.255 122.745 448 136 448H376C389.255 448 400 437.255 400 424V104C400 90.7452 389.255 80 376 80H318V64H376C398.091 64 416 81.9086 416 104V424C416 446.091 398.091 464 376 464H136C113.909 464 96 446.091 96 424V104C96 81.9086 113.909 64 136 64H194V80H136Z" fill="#404040"/>
<path fill-rule="evenodd" clip-rule="evenodd" d="M311.706 192.945C311.351 197.106 309.164 200.545 306.031 202.624C306.062 203.589 306.077 204.559 306.077 205.534C306.077 223.289 300.946 239.628 292.325 251.695C283.72 263.74 271.213 272 256.667 272C242.12 272 229.614 263.74 221.009 251.695C212.387 239.628 207.256 223.289 207.256 205.534C207.256 205.207 207.258 204.88 207.261 204.554C203.978 202.812 201.391 199.696 200.693 195.477C194.876 160.306 226.737 136 256.141 136C270.407 136 285.236 139.326 296.167 148.497C307.378 157.904 313.445 172.572 311.706 192.945ZM293.462 205.534C293.462 204.86 293.453 204.19 293.437 203.523C291.865 202.772 290.401 201.678 289.146 200.232C285.933 196.532 283.149 192.484 280.875 189.178C279.887 187.741 278.995 186.444 278.206 185.377C275.258 181.389 273.246 179.724 271.008 179.123C268.713 178.508 264.603 178.617 256.585 182.252C256.392 182.34 256.197 182.429 256 182.52C248.126 186.171 237.472 192.719 222.659 203.354C221.776 203.988 220.841 204.515 219.874 204.934C219.872 205.134 219.872 205.334 219.872 205.534C219.872 221.099 224.389 234.925 231.368 244.693C238.195 254.249 246.975 259.475 256 259.72C256.222 259.726 256.444 259.729 256.667 259.729C265.925 259.729 274.97 254.484 281.965 244.693C288.944 234.925 293.462 221.099 293.462 205.534Z" fill="#404040"/>
<path fill-rule="evenodd" clip-rule="evenodd" d="M231.368 244.693C238.195 254.249 246.975 259.475 256 259.72V182.52C248.126 186.171 237.472 192.719 222.659 203.354C221.776 203.988 220.841 204.515 219.874 204.934C219.872 205.134 219.872 205.334 219.872 205.534C219.872 221.099 224.389 234.925 231.368 244.693Z" fill="#F7ECD2"/>
<path d="M293.462 205.534C293.462 204.86 293.453 204.19 293.437 203.523C291.865 202.772 290.401 201.678 289.146 200.232C285.933 196.532 283.149 192.484 280.875 189.178C279.887 187.741 278.995 186.444 278.206 185.377C275.258 181.389 273.246 179.724 271.008 179.123C268.713 178.508 264.603 178.617 256.585 182.252C256.392 182.34 256.197 182.429 256 182.52V259.72C256.222 259.726 256.444 259.729 256.667 259.729C265.925 259.729 274.97 254.484 281.965 244.693C288.944 234.925 293.462 221.099 293.462 205.534Z" fill="#F3D381"/>
<path d="M226.856 275.77C224.931 272.645 220.986 269.81 216.123 270.601L191.896 274.707C173.507 277.699 160 293.582 160 312.213V378C160 390.15 169.85 400 182 400H330C342.15 400 352 390.15 352 378V312.173C352 293.563 338.522 277.692 320.158 274.676L296.628 270.647C291.471 269.8 287.428 273.009 285.592 276.275C283.906 279.274 280.413 282.041 275.092 284.068C269.842 286.067 263.373 287.119 256.707 287.09C250.045 287.061 243.488 285.952 238.074 283.887C232.592 281.796 228.806 278.936 226.856 275.77Z" fill="#5895C1"/>
<path fill-rule="evenodd" clip-rule="evenodd" d="M216.991 282.618L193.824 286.551C181.242 288.599 172 299.466 172 312.213V378C172 383.523 176.477 388 182 388H330C335.523 388 340 383.523 340 378V312.173C340 299.44 330.778 288.581 318.214 286.517L295.758 282.665C292.156 288.704 286 292.754 279.364 295.282C272.482 297.903 264.503 299.124 256.654 299.09C248.801 299.055 240.778 297.762 233.797 295.099C227.085 292.539 220.845 288.515 216.991 282.618ZM216.123 270.601C220.986 269.81 224.931 272.645 226.856 275.77C228.806 278.936 232.592 281.796 238.074 283.887C243.488 285.952 250.045 287.061 256.707 287.09C263.373 287.119 269.842 286.067 275.092 284.068C280.413 282.041 283.906 279.274 285.592 276.275C287.428 273.009 291.471 269.8 296.628 270.647L320.158 274.676C338.522 277.692 352 293.563 352 312.173V378C352 390.15 342.15 400 330 400H182C169.85 400 160 390.15 160 378V312.213C160 293.582 173.507 277.699 191.896 274.707L216.123 270.601Z" fill="#404040"/>
<path d="M288 56C288 38.3269 273.673 24 256 24C238.327 24 224 38.3269 224 56H200C191.163 56 184 63.1634 184 72H328C328 63.1634 320.837 56 312 56H288Z" fill="#F3D381"/>
<path fill-rule="evenodd" clip-rule="evenodd" d="M184 88V80H328V88C328 96.8366 320.837 104 312 104H200C191.163 104 184 96.8366 184 88Z" fill="#DEAF3F"/>
<path d="M328 72H184V80H328V72Z" fill="#F3D381"/>
<path d="M284 56V60H288H312C318.627 60 324 65.3726 324 72V88C324 94.6274 318.627 100 312 100H200C193.373 100 188 94.6274 188 88V72C188 65.3726 193.373 60 200 60H224H228V56C228 40.536 240.536 28 256 28C271.464 28 284 40.536 284 56Z" stroke="#404040" stroke-width="8"/>
<circle cx="256" cy="56" r="8" fill="#404040"/>
</svg>
