<svg width="512" height="512" viewBox="0 0 512 512" fill="none" xmlns="http://www.w3.org/2000/svg">
<path fill-rule="evenodd" clip-rule="evenodd" d="M263.622 177.694C263.165 183.078 260.353 187.529 256.326 190.219C256.365 191.468 256.385 192.724 256.385 193.985C256.385 216.962 249.788 238.107 238.703 253.723C227.639 269.311 211.56 280 192.857 280C174.154 280 158.075 269.311 147.011 253.723C135.927 238.107 129.329 216.962 129.329 193.985C129.329 193.562 129.332 193.139 129.336 192.717C125.115 190.463 121.788 186.43 120.891 180.97C113.412 135.454 154.376 104 192.181 104C210.523 104 229.59 108.305 243.643 120.173C258.057 132.346 265.857 151.328 263.622 177.694ZM240.165 193.985C240.165 193.113 240.154 192.245 240.133 191.382C238.112 190.411 236.23 188.996 234.616 187.124C230.485 182.335 226.905 177.097 223.983 172.819C223.903 172.703 223.824 172.587 223.746 172.472C222.569 170.75 221.501 169.194 220.551 167.9C216.76 162.739 214.174 160.584 211.297 159.807C208.346 159.01 203.061 159.152 192.752 163.855C192.504 163.969 192.253 164.084 192 164.203C181.876 168.928 168.178 177.401 149.133 191.164C147.997 191.985 146.796 192.666 145.552 193.209C145.55 193.467 145.549 193.726 145.549 193.985C145.549 214.128 151.358 232.02 160.331 244.662C169.108 257.028 180.396 263.791 192 264.109C192.286 264.116 192.571 264.12 192.857 264.12C204.761 264.12 216.39 257.332 225.384 244.662C234.357 232.02 240.165 214.128 240.165 193.985Z" fill="#404040"/>
<path fill-rule="evenodd" clip-rule="evenodd" d="M160.331 244.662C169.108 257.028 180.396 263.791 192 264.109V164.203C181.876 168.928 168.178 177.401 149.133 191.164C147.997 191.985 146.796 192.666 145.552 193.209C145.55 193.467 145.549 193.726 145.549 193.985C145.549 214.128 151.358 232.02 160.331 244.662Z" fill="#F7ECD2"/>
<path d="M240.165 193.985C240.165 193.113 240.154 192.245 240.133 191.382C238.112 190.411 236.23 188.996 234.616 187.124C230.485 182.335 226.905 177.097 223.983 172.819L223.746 172.472C222.569 170.75 221.501 169.194 220.551 167.9C216.76 162.739 214.174 160.584 211.297 159.807C208.346 159.01 203.061 159.152 192.752 163.855C192.504 163.969 192.253 164.084 192 164.203V264.109C192.286 264.116 192.571 264.12 192.857 264.12C204.761 264.12 216.39 257.332 225.384 244.662C234.357 232.02 240.165 214.128 240.165 193.985Z" fill="#F3D381"/>
<path fill-rule="evenodd" clip-rule="evenodd" d="M139.988 291.491L109.098 296.735C92.3225 299.465 80 313.955 80 330.951V418.667C80 426.03 85.9695 432 93.3333 432H290.667C298.03 432 304 426.03 304 418.667V330.898C304 313.92 291.705 299.441 274.951 296.689L245.01 291.553C240.208 299.605 232 305.005 223.152 308.375C213.977 311.871 203.337 313.499 192.872 313.453C182.401 313.407 171.703 311.683 162.396 308.132C153.447 304.719 145.126 299.353 139.988 291.491ZM138.831 275.468C145.314 274.413 150.575 278.193 153.141 282.359C155.742 286.581 160.789 290.395 168.098 293.183C175.317 295.937 184.06 297.414 192.943 297.453C201.831 297.492 210.456 296.09 217.456 293.424C224.551 290.721 229.208 287.033 231.456 283.034C233.905 278.679 239.294 274.4 246.171 275.529L277.544 280.901C302.03 284.922 320 306.084 320 330.898V418.667C320 434.867 306.867 448 290.667 448H93.3333C77.133 448 64 434.867 64 418.667V330.951C64 306.11 82.0098 284.932 106.528 280.942L138.831 275.468Z" fill="#404040"/>
<path d="M109.098 296.735L139.988 291.491C145.126 299.353 153.447 304.719 162.396 308.132C171.703 311.683 182.401 313.407 192.872 313.453C203.337 313.499 213.977 311.871 223.152 308.375C232 305.005 240.208 299.605 245.01 291.553L274.951 296.689C291.705 299.441 304 313.92 304 330.898V418.667C304 426.03 298.03 432 290.667 432H93.3333C85.9695 432 80 426.03 80 418.667V330.951C80 313.955 92.3225 299.465 109.098 296.735Z" fill="#8DCBF7"/>
<path fill-rule="evenodd" clip-rule="evenodd" d="M372.15 100.411C369.434 102.399 368.161 104.817 367.681 107.182C365.923 115.842 357.479 121.438 348.818 119.68C340.158 117.923 334.563 109.478 336.32 100.818C338.275 91.1832 343.669 81.6011 353.25 74.5888C362.759 67.6293 375.269 64 390.285 64C415.325 64 433.877 75.9508 442.645 93.3372C451.032 109.968 449.773 130.777 437.355 145.724C431.916 152.271 425.717 156.139 420.4 158.804C418.015 159.999 415.647 161.027 413.758 161.847C413.62 161.906 413.485 161.965 413.352 162.023C411.242 162.94 409.751 163.603 408.448 164.287C406.048 165.549 405.44 166.307 405.096 166.872C404.675 167.565 403.55 169.873 403.55 176C403.55 184.837 396.387 192 387.55 192C378.714 192 371.55 184.837 371.55 176C371.55 166.127 373.347 157.497 377.75 150.253C382.231 142.881 388.349 138.701 393.558 135.963C396.06 134.647 398.594 133.545 400.602 132.672L400.789 132.591C402.868 131.688 404.49 130.984 406.062 130.196C409.1 128.673 411.118 127.229 412.741 125.276C416.292 121.001 417.256 114.06 414.073 107.746C411.27 102.188 404.456 96 390.285 96C380.353 96 374.938 98.3708 372.15 100.411Z" fill="#DEAF3F"/>
<path fill-rule="evenodd" clip-rule="evenodd" d="M359.84 105.591C360.691 101.398 363.001 97.1934 367.425 93.9556C371.888 90.6891 379.074 88 390.285 88C407.199 88 416.932 95.6503 421.216 104.144C425.72 113.075 424.636 123.476 418.894 130.388C416.317 133.49 413.253 135.54 409.646 137.348C407.877 138.235 406.08 139.015 404.097 139.877L403.977 139.929L403.976 139.929L403.79 140.01C401.76 140.892 399.484 141.885 397.281 143.044C392.772 145.414 388.032 148.738 384.587 154.408C381.18 160.013 379.55 167.061 379.55 176C379.55 180.418 383.132 184 387.55 184C391.968 184 395.55 180.418 395.55 176C395.55 168.928 396.846 165.043 398.26 162.717C399.634 160.457 401.613 158.842 404.726 157.206C406.33 156.363 408.086 155.588 410.165 154.685C410.165 154.685 410.165 154.685 410.165 154.685L410.574 154.508C412.48 153.68 414.656 152.735 416.816 151.652C421.562 149.273 426.717 146.011 431.202 140.612C441.394 128.343 442.595 111.004 435.502 96.9395C428.23 82.5194 412.619 72 390.285 72C376.536 72 365.801 75.3164 357.975 81.0444C350.113 86.799 345.747 94.5889 344.16 102.409C343.281 106.739 346.079 110.962 350.409 111.84C354.739 112.719 358.962 109.921 359.84 105.591ZM413.758 161.847C415.647 161.027 418.015 159.999 420.4 158.804C425.717 156.139 431.916 152.271 437.355 145.724C449.773 130.777 451.032 109.968 442.645 93.3372C433.877 75.9508 415.325 64 390.285 64C375.269 64 362.759 67.6293 353.25 74.5888C343.669 81.6011 338.275 91.1832 336.32 100.818C334.563 109.478 340.158 117.923 348.818 119.68C357.479 121.438 365.923 115.842 367.681 107.182C368.161 104.817 369.434 102.399 372.15 100.411C374.938 98.3708 380.353 96 390.285 96C404.456 96 411.27 102.188 414.073 107.746C417.256 114.06 416.292 121.001 412.741 125.276C411.118 127.229 409.1 128.673 406.062 130.196C404.49 130.984 402.868 131.688 400.789 132.591L400.602 132.672C398.594 133.545 396.06 134.647 393.558 135.963C388.349 138.701 382.231 142.881 377.75 150.253C373.347 157.497 371.55 166.127 371.55 176C371.55 184.837 378.714 192 387.55 192C396.387 192 403.55 184.837 403.55 176C403.55 169.873 404.675 167.565 405.096 166.872C405.44 166.307 406.048 165.549 408.448 164.287C409.751 163.603 411.242 162.94 413.352 162.023L413.758 161.847Z" fill="#404040"/>
<path d="M408 220C408 231.046 399.046 240 388 240C376.954 240 368 231.046 368 220C368 208.954 376.954 200 388 200C399.046 200 408 208.954 408 220Z" fill="#DEAF3F"/>
<path fill-rule="evenodd" clip-rule="evenodd" d="M388 232C394.627 232 400 226.627 400 220C400 213.373 394.627 208 388 208C381.373 208 376 213.373 376 220C376 226.627 381.373 232 388 232ZM388 240C399.046 240 408 231.046 408 220C408 208.954 399.046 200 388 200C376.954 200 368 208.954 368 220C368 231.046 376.954 240 388 240Z" fill="#404040"/>
</svg>
