<svg width="512" height="512" viewBox="0 0 512 512" fill="none" xmlns="http://www.w3.org/2000/svg">
<path d="M80 375.494C80 388.916 90.7452 399.797 104 399.797L408 399.797C421.255 399.797 432 388.916 432 375.494L432 136.506C432 123.084 421.255 112.203 408 112.203L104 112.203C90.7452 112.203 80 123.084 80 136.506L80 337.013L80 375.494Z" fill="#F8F7F3"/>
<path d="M104 399.797C90.7452 399.797 80 388.916 80 375.494L80 337.013L64 337.013L64 375.494C64 397.865 81.9086 416 104 416L408 416C430.091 416 448 397.865 448 375.494L448 136.506C448 114.135 430.091 96 408 96L104 96C81.9086 96 64 114.135 64 136.506L64 337.013L80 337.013L80 136.506C80 123.084 90.7452 112.203 104 112.203L408 112.203C421.255 112.203 432 123.084 432 136.506L432 375.494C432 388.916 421.255 399.797 408 399.797L104 399.797Z" fill="#404040"/>
<rect x="112" y="144" width="56" height="32" fill="#8DCBF7"/>
<rect x="160" y="192" width="80" height="32" fill="#DEAF3F"/>
<rect x="160" y="288" width="128" height="32" fill="#BC922E"/>
<rect x="280" y="336" width="120" height="32" fill="#2D7BB3"/>
<rect x="160" y="240" width="80" height="32" fill="#5895C1"/>
<path fill-rule="evenodd" clip-rule="evenodd" d="M348 235C369.539 235 387 217.539 387 196C387 174.461 369.539 157 348 157C326.461 157 309 174.461 309 196C309 217.539 326.461 235 348 235ZM348 248C376.719 248 400 224.719 400 196C400 167.281 376.719 144 348 144C319.281 144 296 167.281 296 196C296 224.719 319.281 248 348 248Z" fill="#404040"/>
<path d="M350.005 168H346.005C344.901 168 344.005 168.895 344.005 170V194.127L327.13 203.87C326.174 204.422 325.846 205.645 326.398 206.602L328.398 210.066C328.95 211.022 330.174 211.35 331.13 210.798L350.273 199.746C351.505 199 352.005 198.5 352.005 197V170C352.005 168.895 351.11 168 350.005 168Z" fill="#404040"/>
<rect x="160" y="240" width="8" height="8" fill="#404040"/>
<rect x="160" y="224" width="8" height="8" fill="#404040"/>
<rect x="160" y="256" width="8" height="8" fill="#404040"/>
<rect x="160" y="272" width="8" height="8" fill="#404040"/>
<rect x="160" y="288" width="8" height="8" fill="#404040"/>
<rect x="160" y="304" width="8" height="8" fill="#404040"/>
<rect x="232" y="192" width="8" height="8" fill="#404040"/>
<rect x="232" y="208" width="8" height="8" fill="#404040"/>
<rect x="232" y="224" width="8" height="8" fill="#404040"/>
<rect x="232" y="240" width="8" height="8" fill="#404040"/>
<rect x="232" y="256" width="8" height="8" fill="#404040"/>
<rect x="160" y="144" width="8" height="8" fill="#404040"/>
<rect x="160" y="160" width="8" height="8" fill="#404040"/>
<rect x="160" y="176" width="8" height="8" fill="#404040"/>
<rect x="160" y="192" width="8" height="8" fill="#404040"/>
<rect x="160" y="208" width="8" height="8" fill="#404040"/>
<rect x="280" y="288" width="8" height="8" fill="#404040"/>
<rect x="280" y="304" width="8" height="8" fill="#404040"/>
<rect x="280" y="320" width="8" height="8" fill="#404040"/>
<rect x="280" y="336" width="8" height="8" fill="#404040"/>
<rect x="280" y="352" width="8" height="8" fill="#404040"/>
</svg>
