<?xml version="1.0" standalone="no"?>
<!DOCTYPE svg PUBLIC "-//W3C//DTD SVG 1.1//EN" "http://www.w3.org/Graphics/SVG/1.1/DTD/svg11.dtd">
<!--Generator: Xara Designer (www.xara.com), SVG filter version: 6.6.0.8-->
<svg fill="none" fill-rule="evenodd" stroke="black" stroke-width="0.501" stroke-linejoin="bevel" stroke-miterlimit="10" font-family="Times New Roman" font-size="16" style="font-variant-ligatures:none" xmlns:xlink="http://www.w3.org/1999/xlink" xmlns="http://www.w3.org/2000/svg" version="1.1" overflow="visible" width="55.309pt" height="65.993pt" viewBox="285.675 -561.454 55.309 65.993">
 <defs>
  <style type="text/css">@import url('https://themes.googleusercontent.com/fonts/css?family=Open Sans:400,600');</style>
 </defs>
 <g id="Layer 1" transform="scale(1 -1)">
  <rect x="285.676" y="495.462" width="55.308" height="65.992" stroke="none" stroke-width="0.152" stroke-linejoin="miter"/>
  <g id="Group" fill-rule="nonzero" stroke-linejoin="miter" stroke="none" stroke-width="0.137" fill="#fbfbf7">
   <path d="M 323.048,507.392 C 323.11,508.015 323.154,508.539 323.182,508.963 C 323.21,509.386 323.237,509.945 323.266,510.645 C 323.294,511.345 323.307,511.808 323.307,512.036 L 323.303,512.357 C 323.875,512.352 324.568,512.347 325.382,512.347 C 326.129,512.347 326.79,512.352 327.363,512.357 L 327.356,512.236 C 327.35,512.207 327.346,512.101 327.338,511.921 L 327.317,511.524 C 327.311,511.439 327.309,511.352 327.308,511.266 C 326.839,511.283 326.448,511.295 326.129,511.295 C 325.781,511.295 325.543,511.295 325.422,511.291 C 325.298,511.29 325.108,511.286 324.852,511.276 L 324.804,510.443 C 325.09,510.435 325.424,510.434 325.807,510.434 C 325.941,510.434 326.303,510.439 326.891,510.457 C 326.866,510.146 326.843,509.779 326.821,509.351 C 326.401,509.353 326.08,509.355 325.853,509.355 C 325.52,509.355 325.145,509.346 324.729,509.329 L 324.684,508.446 L 325.104,508.446 C 325.228,508.446 325.484,508.449 325.872,508.456 L 326.624,508.475 C 326.736,508.476 326.922,508.487 327.186,508.503 C 327.155,508.146 327.131,507.775 327.111,507.392 C 326.519,507.394 325.872,507.399 325.165,507.399 L 323.566,507.394 L 323.048,507.392 Z" marker-start="none" marker-end="none"/>
   <path d="M 318.279,507.392 L 318.147,507.832 L 317.258,510.391 L 316.56,512.357 C 316.889,512.352 317.182,512.347 317.44,512.347 C 317.599,512.347 317.846,512.352 318.184,512.357 C 318.239,512.14 318.282,511.976 318.313,511.864 C 318.358,511.719 318.44,511.457 318.562,511.076 L 319.095,509.355 C 319.148,509.177 319.213,508.942 319.293,508.653 L 319.46,509.07 L 320.728,511.852 C 320.752,511.901 320.776,511.96 320.805,512.026 C 320.833,512.091 320.876,512.2 320.937,512.357 C 321.288,512.352 321.571,512.347 321.783,512.347 C 321.916,512.347 322.18,512.352 322.576,512.357 C 322.327,511.895 322.049,511.357 321.735,510.741 L 320.482,508.253 C 320.358,508.01 320.224,507.723 320.074,507.392 C 319.667,507.394 319.375,507.399 319.2,507.399 C 319.038,507.399 318.731,507.394 318.279,507.392 Z" marker-start="none" marker-end="none"/>
   <path d="M 313.947,507.392 C 314.088,509.339 314.16,510.838 314.16,511.885 L 314.157,512.357 C 314.578,512.352 314.864,512.347 315.006,512.347 C 315.071,512.347 315.333,512.352 315.79,512.357 C 315.744,511.811 315.708,511.295 315.682,510.807 C 315.649,510.128 315.623,509.493 315.611,508.903 C 315.594,508.311 315.588,507.808 315.588,507.392 L 314.842,507.399 C 314.697,507.399 314.4,507.394 313.947,507.392 Z" marker-start="none" marker-end="none"/>
   <path d="M 309.051,507.392 C 309.111,507.963 309.155,508.429 309.183,508.793 C 309.235,509.451 309.272,510.105 309.297,510.756 C 309.323,511.408 309.337,511.94 309.337,512.357 C 309.665,512.352 309.958,512.347 310.211,512.347 C 310.384,512.347 310.631,512.352 310.953,512.357 L 310.866,511.04 L 310.756,508.98 L 310.744,508.475 C 311.16,508.468 311.432,508.465 311.558,508.465 C 312.196,508.465 312.679,508.473 313.005,508.49 L 312.926,507.392 C 312.288,507.394 311.68,507.399 311.103,507.399 C 310.322,507.399 309.639,507.394 309.051,507.392 Z" marker-start="none" marker-end="none"/>
   <path d="M 305.241,512.45 C 305.629,512.45 306.003,512.398 306.361,512.294 C 306.721,512.19 307.035,512.022 307.303,511.795 C 307.573,511.566 307.775,511.302 307.907,511.002 C 308.04,510.705 308.109,510.362 308.109,509.974 C 308.109,509.566 308.034,509.194 307.887,508.852 C 307.74,508.511 307.53,508.221 307.252,507.984 C 306.976,507.745 306.647,507.572 306.262,507.462 C 305.881,507.352 305.481,507.296 305.068,507.296 C 304.657,507.296 304.265,507.349 303.888,507.459 C 303.513,507.566 303.185,507.742 302.908,507.983 C 302.63,508.222 302.435,508.491 302.318,508.789 C 302.199,509.083 302.142,509.412 302.143,509.774 C 302.142,510.305 302.266,510.772 302.511,511.171 C 302.758,511.574 303.122,511.885 303.608,512.114 C 304.091,512.338 304.634,512.45 305.241,512.45 Z M 305.176,511.356 C 304.896,511.356 304.644,511.287 304.419,511.15 C 304.193,511.012 304.02,510.824 303.901,510.579 C 303.777,510.335 303.717,510.073 303.717,509.794 C 303.717,509.538 303.772,509.304 303.884,509.089 C 303.994,508.876 304.161,508.71 304.386,508.59 C 304.613,508.47 304.853,508.408 305.103,508.408 C 305.372,508.408 305.619,508.476 305.844,508.61 C 306.067,508.746 306.238,508.936 306.357,509.179 C 306.474,509.422 306.533,509.679 306.533,509.945 C 306.533,510.204 306.476,510.443 306.369,510.663 C 306.259,510.883 306.1,511.053 305.889,511.174 C 305.679,511.295 305.44,511.356 305.176,511.356 Z" marker-start="none" marker-end="none"/>
  </g>
  <path d="M 325.922,536.73 C 322.961,542.065 315.528,543.606 309.332,540.168 C 303.133,536.728 300.507,529.605 303.467,524.271 C 306.43,518.934 313.862,517.396 320.058,520.833 C 326.255,524.271 328.883,531.393 325.922,536.73 Z M 306.138,525.751 C 303.882,529.818 305.883,535.247 310.607,537.867 C 315.33,540.488 320.996,539.314 323.252,535.248 C 325.508,531.183 323.507,525.752 318.783,523.13 C 314.06,520.512 308.395,521.685 306.138,525.751 Z M 321.402,533.17 C 320.64,530.861 318.913,528.722 316.442,527.349 C 313.972,525.979 311.245,525.646 308.879,526.223 C 310.79,523.845 314.542,523.288 317.719,525.051 C 320.897,526.813 322.409,530.293 321.402,533.17 Z" stroke-linejoin="miter" stroke="none" stroke-width="0.25" fill="#fbfbf7" marker-start="none" marker-end="none"/>
 </g>
</svg>
