<svg width="240" height="75" viewBox="0 0 240 75" fill="none" xmlns="http://www.w3.org/2000/svg">
<rect width="239.233" height="74.8236" transform="translate(0 0.0639648)" fill="#0F7E9A"/>
<path d="M42.9489 57.7904C35.4161 62.8021 25.0705 60.3427 19.8414 52.2971C14.6123 44.2516 16.4798 33.6665 24.0126 28.6548L38.0405 19.3217C39.557 18.3127 41.6399 18.8078 42.6927 20.4276C43.7455 22.0474 43.3695 24.1785 41.8529 25.1875L28.9741 33.7561C24.4765 36.7485 23.3626 43.0702 26.4862 47.8762C29.6098 52.6822 35.7879 54.1524 40.2855 51.16L47.8278 46.142C49.3444 45.133 49.7203 43.0019 48.6676 41.3821C47.6148 39.7622 45.5319 39.2671 44.0154 40.2761L36.6322 45.1883C35.1157 46.1973 33.0328 45.7021 31.98 44.0823C30.9273 42.4625 31.3032 40.3314 32.8198 39.3224L44.0965 31.8198L44.0882 31.807L59.6834 21.4312C67.2162 16.4194 77.5617 18.8788 82.7909 26.9244C88.02 34.97 86.1525 45.555 78.6197 50.5668L64.5918 59.8999C63.0753 60.9089 60.9924 60.4137 59.9396 58.7939C58.8868 57.1741 59.2628 55.043 60.7794 54.034L73.6582 45.4654C78.1558 42.4731 79.2696 36.1513 76.1461 31.3454C73.0225 26.5394 66.8443 25.0692 62.3468 28.0615L54.8045 33.0796C53.2879 34.0886 52.9119 36.2197 53.9647 37.8395C55.0175 39.4593 57.1004 39.9544 58.6169 38.9454L66 34.0333C67.5166 33.0243 69.5995 33.5194 70.6523 35.1392C71.705 36.7591 71.3291 38.8901 69.8125 39.8991L58.5358 47.4018L58.5441 47.4145L42.9489 57.7904Z" fill="#FEFBF6"/>
<path d="M161.659 27.0995V45.0781C161.659 46.3238 161.365 47.2656 160.778 47.9036C160.191 48.5416 159.446 48.8607 158.543 48.8607C157.64 48.8607 156.903 48.5341 156.331 47.8808C155.774 47.2276 155.495 46.2934 155.495 45.0781V27.2818C155.495 26.0513 155.774 25.1247 156.331 24.5019C156.903 23.879 157.64 23.5676 158.543 23.5676C159.446 23.5676 160.191 23.879 160.778 24.5019C161.365 25.1247 161.659 25.9906 161.659 27.0995Z" fill="#FEFBF6"/>
<path fill-rule="evenodd" clip-rule="evenodd" d="M129.622 28.1249V46.1946C129.626 46.4705 129.6 47.0657 129.584 47.432C129.576 47.6152 129.571 47.7413 129.573 47.7413C129.573 54.6227 124.046 60.2012 117.227 60.2012C113.983 60.2012 111.031 58.9383 108.828 56.8729C108.155 56.3044 107.728 55.4506 107.728 54.496C107.728 52.7845 109.102 51.3971 110.798 51.3971C111.77 51.3971 112.4 51.8562 113.103 52.3686C113.266 52.4872 113.433 52.6086 113.609 52.7278C114.592 53.3954 115.835 54.0033 117.227 54.0033C120.638 54.0033 123.406 51.2262 123.432 47.7904C123.433 47.6248 123.436 47.377 123.44 47.2436C123.455 46.6373 123.483 45.5674 123.503 44.1894C122.555 45.5262 121.456 46.544 120.207 47.2428C118.972 47.9416 117.497 48.291 115.782 48.291C113.719 48.291 111.913 47.7593 110.363 46.6959C108.828 45.6326 107.646 44.1438 106.818 42.2298C105.99 40.3157 105.577 38.1054 105.577 35.5989C105.577 33.7304 105.825 32.0442 106.322 30.5403C106.833 29.0364 107.556 27.7679 108.489 26.7349C109.422 25.7019 110.498 24.9272 111.718 24.4107C112.937 23.879 114.276 23.6132 115.736 23.6132C117.482 23.6132 118.995 23.955 120.274 24.6386C121.554 25.307 122.743 26.3628 123.842 27.8059V26.9628C123.842 25.8842 124.105 25.0487 124.632 24.4563C125.159 23.8638 125.836 23.5676 126.664 23.5676C127.853 23.5676 128.643 23.9626 129.035 24.7525C129.426 25.5273 129.622 26.6514 129.622 28.1249ZM117.136 43.012C120.589 43.012 123.387 39.8677 123.387 35.989C123.387 32.1103 120.589 28.966 117.136 28.966C113.684 28.966 110.886 32.1103 110.886 35.989C110.886 39.8677 113.684 43.012 117.136 43.012Z" fill="#FEFBF6"/>
<path d="M141.339 45.0781V39.8828C141.339 38.0143 141.399 36.4344 141.52 35.1432C141.64 33.8367 141.859 32.7126 142.175 31.7708C142.491 30.8289 142.935 30.1225 143.507 29.6516C144.079 29.1655 144.816 28.9224 145.719 28.9224C146.382 28.9224 147.142 29.0668 148 29.3554C148.873 29.6288 149.422 29.7655 149.648 29.7655C150.25 29.7655 150.807 29.5225 151.318 29.0364C151.845 28.5351 152.109 27.9046 152.109 27.1451C152.109 26.0665 151.499 25.2007 150.28 24.5474C149.061 23.8942 147.804 23.5676 146.509 23.5676C145.215 23.5676 144.276 24.0402 143.394 24.5474C142.558 25.028 142.175 25.3217 141.339 26.5591C140.906 27.2002 140.816 26.5609 140.711 25.8138C140.643 25.3313 140.568 24.8038 140.391 24.5474C139.939 23.8942 139.202 23.5676 138.178 23.5676C136.177 23.5676 135.176 24.9652 135.176 27.7603V45.0781C135.176 46.3238 135.462 47.2656 136.034 47.9036C136.605 48.5416 137.335 48.8607 138.224 48.8607C139.127 48.8607 139.872 48.5492 140.459 47.9264C141.046 47.2884 141.339 46.339 141.339 45.0781Z" fill="#FEFBF6"/>
<path fill-rule="evenodd" clip-rule="evenodd" d="M185.252 37.7408H173.196C173.211 39.1536 173.49 40.3993 174.031 41.4778C174.588 42.5564 175.239 43.0729 176.142 43.6198C177.06 44.1666 178.138 44.2717 178.976 44.3034C179.813 44.335 180.369 44.3104 181.056 44.2149C181.742 44.1194 182.463 44.0118 183.092 43.7332C183.721 43.4545 184.392 43.0184 184.874 42.593C185.1 42.3936 185.312 42.1343 185.552 41.84C185.824 41.5067 186.133 41.1284 186.54 40.7412C186.857 40.4678 187.488 40.2659 188.075 40.2659C188.707 40.2659 188.993 40.4904 189.384 40.8398C189.775 41.1892 189.971 41.6829 189.971 42.3209C189.971 42.883 189.753 43.5438 189.316 44.3034C188.88 45.0477 188.218 45.7693 187.33 46.4681C186.457 47.1517 185.35 47.7213 184.011 48.1771C182.686 48.6328 181.158 48.8607 179.427 48.8607C175.469 48.8607 172.391 47.7213 170.193 45.4427C167.996 43.164 166.897 40.0727 166.897 36.1686C166.897 34.3305 167.168 32.6291 167.71 31.0644C168.252 29.4845 169.042 28.1325 170.08 27.0084C171.119 25.8842 172.398 25.026 173.919 24.4335C175.439 23.8259 177.125 23.522 178.976 23.522C181.384 23.522 183.446 24.0385 185.162 25.0715C186.893 26.0893 188.188 27.4109 189.045 29.0364C189.903 30.6618 190.332 32.3176 190.332 34.0038C190.332 35.5685 189.888 36.5863 189 37.0572C188.112 37.513 186.863 37.7408 185.252 37.7408ZM173.196 34.2089H184.372C184.221 32.0822 183.649 30.4947 182.656 29.4465C181.678 28.3832 180.383 27.8515 178.773 27.8515C177.237 27.8515 175.973 28.3908 174.98 29.4693C174.001 30.5327 173.407 32.1126 173.196 34.2089Z" fill="#FEFBF6"/>
<path fill-rule="evenodd" clip-rule="evenodd" d="M217.535 28.0793V46.1491C217.54 46.4249 217.514 47.0201 217.498 47.3864C217.49 47.5696 217.484 47.6957 217.486 47.6957C217.486 54.5771 211.959 60.1556 205.141 60.1556C201.897 60.1556 198.945 58.8927 196.741 56.8273C196.069 56.2589 195.641 55.4051 195.641 54.4505C195.641 52.739 197.016 51.3515 198.712 51.3515C199.683 51.3515 200.313 51.8106 201.017 52.3231C201.18 52.4416 201.346 52.563 201.522 52.6822C202.506 53.3498 203.748 53.9577 205.141 53.9577C208.551 53.9577 211.319 51.1807 211.345 47.7449C211.346 47.5793 211.35 47.3314 211.353 47.1981C211.369 46.5917 211.396 45.5218 211.416 44.1438C210.468 45.4807 209.369 46.4985 208.12 47.1972C206.886 47.896 205.411 48.2454 203.695 48.2454C201.633 48.2454 199.827 47.7137 198.276 46.6504C196.741 45.587 195.559 44.0983 194.732 42.1842C193.904 40.2701 193.49 38.0598 193.49 35.5533C193.49 33.6848 193.738 31.9986 194.235 30.4947C194.747 28.9908 195.469 27.7224 196.402 26.6894C197.336 25.6564 198.412 24.8816 199.631 24.3651C200.85 23.8335 202.19 23.5676 203.65 23.5676C205.396 23.5676 206.908 23.9094 208.188 24.593C209.467 25.2614 210.656 26.3172 211.755 27.7603V26.9172C211.755 25.8387 212.018 25.0032 212.545 24.4107C213.072 23.8183 213.749 23.522 214.577 23.522C215.766 23.522 216.557 23.917 216.948 24.7069C217.339 25.4817 217.535 26.6058 217.535 28.0793ZM205.05 42.9664C208.502 42.9664 211.3 39.8221 211.3 35.9434C211.3 32.0647 208.502 28.9204 205.05 28.9204C201.598 28.9204 198.799 32.0647 198.799 35.9434C198.799 39.8221 201.598 42.9664 205.05 42.9664Z" fill="#FEFBF6"/>
<path d="M161.533 17.5767C161.533 19.2598 160.175 20.6243 158.501 20.6243C156.827 20.6243 155.47 19.2598 155.47 17.5767C155.47 15.8935 156.827 14.5291 158.501 14.5291C160.175 14.5291 161.533 15.8935 161.533 17.5767Z" fill="#FEFBF6"/>
</svg>
