<svg width="240" height="68" viewBox="0 0 240 68" fill="none" xmlns="http://www.w3.org/2000/svg">
<path d="M42.9489 53.4017C35.4161 58.4134 25.0705 55.954 19.8414 47.9085C14.6123 39.8629 16.4798 29.2778 24.0126 24.2661L38.0405 14.933C39.557 13.924 41.6399 14.4192 42.6927 16.039C43.7455 17.6588 43.3695 19.7899 41.8529 20.7989L28.9741 29.3675C24.4765 32.3598 23.3626 38.6816 26.4862 43.4875C29.6098 48.2935 35.7879 49.7637 40.2855 46.7713L47.8278 41.7533C49.3444 40.7443 49.7203 38.6132 48.6676 36.9934C47.6148 35.3736 45.5319 34.8784 44.0154 35.8874L36.6322 40.7996C35.1157 41.8086 33.0328 41.3135 31.98 39.6936C30.9273 38.0738 31.3032 35.9427 32.8198 34.9337L44.0965 27.4311L44.0882 27.4183L59.6834 17.0425C67.2162 12.0308 77.5617 14.4902 82.7909 22.5357C88.02 30.5813 86.1525 41.1664 78.6197 46.1781L64.5918 55.5112C63.0753 56.5202 60.9924 56.0251 59.9396 54.4052C58.8868 52.7854 59.2628 50.6544 60.7794 49.6453L73.6582 41.0768C78.1558 38.0844 79.2696 31.7626 76.1461 26.9567C73.0225 22.1507 66.8443 20.6805 62.3468 23.6729L54.8045 28.6909C53.2879 29.6999 52.9119 31.831 53.9647 33.4508C55.0175 35.0706 57.1004 35.5658 58.6169 34.5568L66 29.6446C67.5166 28.6356 69.5995 29.1308 70.6523 30.7506C71.705 32.3704 71.3291 34.5015 69.8125 35.5105L58.5358 43.0131L58.5441 43.0259L42.9489 53.4017Z" fill="#0F7E9A"/>
<path d="M161.659 22.7109V40.6894C161.659 41.9351 161.365 42.8769 160.778 43.515C160.191 44.153 159.446 44.472 158.543 44.472C157.64 44.472 156.903 44.1454 156.331 43.4922C155.774 42.839 155.495 41.9047 155.495 40.6894V22.8931C155.495 21.6627 155.774 20.736 156.331 20.1132C156.903 19.4904 157.64 19.1789 158.543 19.1789C159.446 19.1789 160.191 19.4904 160.778 20.1132C161.365 20.736 161.659 21.6019 161.659 22.7109Z" fill="#0F7E9A"/>
<path fill-rule="evenodd" clip-rule="evenodd" d="M129.622 23.7362V41.806C129.626 42.0818 129.6 42.677 129.584 43.0433C129.576 43.2265 129.571 43.3526 129.573 43.3526C129.573 50.234 124.046 55.8126 117.227 55.8126C113.983 55.8126 111.031 54.5496 108.828 52.4842C108.155 51.9158 107.728 51.062 107.728 50.1074C107.728 48.3959 109.102 47.0084 110.798 47.0084C111.77 47.0084 112.4 47.4675 113.103 47.98C113.266 48.0985 113.433 48.2199 113.609 48.3391C114.592 49.0067 115.835 49.6146 117.227 49.6146C120.638 49.6146 123.406 46.8376 123.432 43.4018C123.433 43.2362 123.436 42.9883 123.44 42.855C123.455 42.2487 123.483 41.1787 123.503 39.8007C122.555 41.1376 121.456 42.1554 120.207 42.8541C118.972 43.5529 117.497 43.9023 115.782 43.9023C113.719 43.9023 111.913 43.3706 110.363 42.3073C108.828 41.2439 107.646 39.7552 106.818 37.8411C105.99 35.927 105.577 33.7168 105.577 31.2102C105.577 29.3417 105.825 27.6555 106.322 26.1516C106.833 24.6477 107.556 23.3793 108.489 22.3463C109.422 21.3133 110.498 20.5385 111.718 20.022C112.937 19.4904 114.276 19.2245 115.736 19.2245C117.482 19.2245 118.995 19.5663 120.274 20.2499C121.554 20.9183 122.743 21.9741 123.842 23.4172V22.5741C123.842 21.4956 124.105 20.6601 124.632 20.0676C125.159 19.4752 125.836 19.1789 126.664 19.1789C127.853 19.1789 128.643 19.5739 129.035 20.3638C129.426 21.1386 129.622 22.2627 129.622 23.7362ZM117.136 38.6233C120.589 38.6233 123.387 35.479 123.387 31.6003C123.387 27.7216 120.589 24.5773 117.136 24.5773C113.684 24.5773 110.886 27.7216 110.886 31.6003C110.886 35.479 113.684 38.6233 117.136 38.6233Z" fill="#0F7E9A"/>
<path d="M141.339 40.6894V35.4941C141.339 33.6256 141.399 32.0457 141.52 30.7545C141.64 29.4481 141.859 28.3239 142.175 27.3821C142.491 26.4402 142.935 25.7339 143.507 25.2629C144.079 24.7768 144.816 24.5338 145.719 24.5338C146.382 24.5338 147.142 24.6781 148 24.9667C148.873 25.2402 149.422 25.3769 149.648 25.3769C150.25 25.3769 150.807 25.1338 151.318 24.6477C151.845 24.1464 152.109 23.516 152.109 22.7564C152.109 21.6779 151.499 20.812 150.28 20.1588C149.061 19.5056 147.804 19.1789 146.509 19.1789C145.215 19.1789 144.276 19.6516 143.394 20.1588C142.558 20.6394 142.175 20.933 141.339 22.1705C140.906 22.8116 140.816 22.1722 140.711 21.4251C140.643 20.9426 140.568 20.4151 140.391 20.1588C139.939 19.5056 139.202 19.1789 138.178 19.1789C136.177 19.1789 135.176 20.5765 135.176 23.3717V40.6894C135.176 41.9351 135.462 42.8769 136.034 43.515C136.605 44.153 137.335 44.472 138.224 44.472C139.127 44.472 139.872 44.1606 140.459 43.5377C141.046 42.8997 141.339 41.9503 141.339 40.6894Z" fill="#0F7E9A"/>
<path fill-rule="evenodd" clip-rule="evenodd" d="M185.252 33.3522H173.196C173.211 34.7649 173.49 36.0106 174.031 37.0892C174.588 38.1677 175.239 38.6842 176.142 39.2311C177.06 39.778 178.138 39.883 178.976 39.9147C179.813 39.9464 180.369 39.9218 181.056 39.8262C181.742 39.7307 182.463 39.6232 183.092 39.3445C183.721 39.0658 184.392 38.6297 184.874 38.2044C185.1 38.0049 185.312 37.7456 185.552 37.4513C185.824 37.118 186.133 36.7398 186.54 36.3525C186.857 36.0791 187.488 35.8772 188.075 35.8772C188.707 35.8772 188.993 36.1017 189.384 36.4511C189.775 36.8005 189.971 37.2942 189.971 37.9323C189.971 38.4943 189.753 39.1551 189.316 39.9147C188.88 40.659 188.218 41.3806 187.33 42.0794C186.457 42.763 185.35 43.3327 184.011 43.7884C182.686 44.2441 181.158 44.472 179.427 44.472C175.469 44.472 172.391 43.3327 170.193 41.054C167.996 38.7754 166.897 35.684 166.897 31.7799C166.897 29.9418 167.168 28.2404 167.71 26.6757C168.252 25.0958 169.042 23.7438 170.08 22.6197C171.119 21.4956 172.398 20.6373 173.919 20.0448C175.439 19.4372 177.125 19.1334 178.976 19.1334C181.384 19.1334 183.446 19.6499 185.162 20.6829C186.893 21.7007 188.188 23.0223 189.045 24.6477C189.903 26.2731 190.332 27.929 190.332 29.6152C190.332 31.1798 189.888 32.1977 189 32.6686C188.112 33.1243 186.863 33.3522 185.252 33.3522ZM173.196 29.8202H184.372C184.221 27.6935 183.649 26.106 182.656 25.0579C181.678 23.9945 180.383 23.4628 178.773 23.4628C177.237 23.4628 175.973 24.0021 174.98 25.0807C174.001 26.144 173.407 27.7239 173.196 29.8202Z" fill="#0F7E9A"/>
<path fill-rule="evenodd" clip-rule="evenodd" d="M217.535 23.6907V41.7604C217.54 42.0362 217.514 42.6314 217.498 42.9978C217.49 43.181 217.484 43.307 217.486 43.307C217.486 50.1885 211.959 55.767 205.141 55.767C201.897 55.767 198.945 54.504 196.741 52.4387C196.069 51.8702 195.641 51.0164 195.641 50.0618C195.641 48.3503 197.016 46.9628 198.712 46.9628C199.683 46.9628 200.313 47.4219 201.017 47.9344C201.18 48.0529 201.346 48.1743 201.522 48.2935C202.506 48.9611 203.748 49.569 205.141 49.569C208.551 49.569 211.319 46.792 211.345 43.3562C211.346 43.1906 211.35 42.9427 211.353 42.8094C211.369 42.2031 211.396 41.1331 211.416 39.7552C210.468 41.092 209.369 42.1098 208.12 42.8086C206.886 43.5074 205.411 43.8567 203.695 43.8567C201.633 43.8567 199.827 43.3251 198.276 42.2617C196.741 41.1983 195.559 39.7096 194.732 37.7955C193.904 35.8815 193.49 33.6712 193.49 31.1647C193.49 29.2962 193.738 27.61 194.235 26.106C194.747 24.6021 195.469 23.3337 196.402 22.3007C197.336 21.2677 198.412 20.493 199.631 19.9765C200.85 19.4448 202.19 19.1789 203.65 19.1789C205.396 19.1789 206.908 19.5207 208.188 20.2043C209.467 20.8727 210.656 21.9285 211.755 23.3717V22.5286C211.755 21.45 212.018 20.6145 212.545 20.022C213.072 19.4296 213.749 19.1334 214.577 19.1334C215.766 19.1334 216.557 19.5283 216.948 20.3183C217.339 21.093 217.535 22.2171 217.535 23.6907ZM205.05 38.5777C208.502 38.5777 211.3 35.4334 211.3 31.5547C211.3 27.676 208.502 24.5317 205.05 24.5317C201.598 24.5317 198.799 27.676 198.799 31.5547C198.799 35.4334 201.598 38.5777 205.05 38.5777Z" fill="#0F7E9A"/>
<path d="M161.533 13.188C161.533 14.8712 160.175 16.2356 158.501 16.2356C156.827 16.2356 155.47 14.8712 155.47 13.188C155.47 11.5048 156.827 10.1404 158.501 10.1404C160.175 10.1404 161.533 11.5048 161.533 13.188Z" fill="#0F7E9A"/>
</svg>
