<svg width="86" height="32" viewBox="0 0 86 32" fill="none" xmlns="http://www.w3.org/2000/svg">
<path fill-rule="evenodd" clip-rule="evenodd" d="M13.5824 23.5508C10.4578 25.6297 6.16653 24.6095 3.99751 21.2722C1.82849 17.935 2.60312 13.5443 5.72769 11.4655L11.5464 7.59414C12.1755 7.17561 13.0394 7.38099 13.4761 8.05288C13.9128 8.72478 13.7569 9.60874 13.1278 10.0273L7.78571 13.5815C5.92012 14.8227 5.4581 17.445 6.75374 19.4384C8.04939 21.4319 10.6121 22.0418 12.4776 20.8006L15.6061 18.7191C16.2352 18.3006 16.3912 17.4166 15.9545 16.7447C15.5178 16.0728 14.6538 15.8674 14.0248 16.286L10.9623 18.3235C10.3332 18.742 9.46924 18.5366 9.03256 17.8648C8.59587 17.1929 8.75183 16.3089 9.38089 15.8904L14.0584 12.7783L14.055 12.773L20.5238 8.46914C23.6484 6.39029 27.9397 7.41045 30.1087 10.7477C32.2777 14.085 31.5031 18.4756 28.3785 20.5545L22.5598 24.4258C21.9307 24.8444 21.0668 24.639 20.6301 23.9671C20.1934 23.2952 20.3494 22.4112 20.9784 21.9927L26.3205 18.4385C28.1861 17.1973 28.6481 14.575 27.3525 12.5815C26.0568 10.588 23.4941 9.97818 21.6286 11.2194L18.5001 13.3009C17.871 13.7194 17.715 14.6034 18.1517 15.2753C18.5884 15.9471 19.4524 16.1525 20.0814 15.734L23.1439 13.6965C23.773 13.2779 24.637 13.4833 25.0737 14.1552C25.5103 14.8271 25.3544 15.7111 24.7253 16.1296L20.0478 19.2417L20.0512 19.2469L13.5824 23.5508Z" fill="#FEFBF6"/>
<path d="M62.8229 10.8206V18.2781C62.8229 18.7948 62.7012 19.1854 62.4577 19.4501C62.2142 19.7147 61.9051 19.8471 61.5305 19.8471C61.1559 19.8471 60.85 19.7116 60.6127 19.4406C60.3817 19.1697 60.2662 18.7822 60.2662 18.2781V10.8962C60.2662 10.3858 60.3817 10.0015 60.6127 9.74313C60.85 9.48478 61.1559 9.35561 61.5305 9.35561C61.9051 9.35561 62.2142 9.48478 62.4577 9.74313C62.7012 10.0015 62.8229 10.3606 62.8229 10.8206Z" fill="#FEFBF6"/>
<path fill-rule="evenodd" clip-rule="evenodd" d="M49.5339 11.246V18.7412C49.5359 18.8556 49.5251 19.1025 49.5185 19.2545C49.5152 19.3305 49.5129 19.3828 49.5138 19.3828C49.5138 22.2371 47.2211 24.5511 44.3929 24.5511C43.0472 24.5511 41.8227 24.0272 40.9088 23.1705C40.6298 22.9347 40.4524 22.5806 40.4524 22.1846C40.4524 21.4747 41.0227 20.8992 41.7261 20.8992C42.129 20.8992 42.3904 21.0896 42.6823 21.3022C42.7498 21.3513 42.8189 21.4017 42.8918 21.4511C43.2999 21.7281 43.8153 21.9802 44.3929 21.9802C45.8075 21.9802 46.9556 20.8283 46.9664 19.4031C46.967 19.3345 46.9684 19.2316 46.9698 19.1763L46.9698 19.1759C46.9762 18.9244 46.9875 18.481 46.996 17.9095C46.6026 18.464 46.1469 18.8861 45.6287 19.176C45.1167 19.4658 44.5049 19.6108 43.7931 19.6108C42.9378 19.6108 42.1886 19.3902 41.5455 18.9492C40.9087 18.5081 40.4186 17.8906 40.0752 17.0966C39.7318 16.3027 39.5601 15.3858 39.5601 14.3461C39.5601 13.5711 39.6631 12.8717 39.8692 12.2478C40.0814 11.624 40.3811 11.0979 40.7682 10.6694C41.1553 10.2409 41.6017 9.91956 42.1074 9.70532C42.6131 9.48478 43.1688 9.37451 43.7744 9.37451C44.4986 9.37451 45.1261 9.51629 45.6568 9.79984C46.1875 10.0771 46.6807 10.515 47.1364 11.1136V10.7639C47.1364 10.3165 47.2457 9.96997 47.4642 9.72423C47.6827 9.47848 47.9637 9.35561 48.3071 9.35561C48.8003 9.35561 49.1281 9.51944 49.2904 9.8471C49.4527 10.1685 49.5339 10.6347 49.5339 11.246ZM44.3551 17.4211C45.787 17.4211 46.9479 16.1168 46.9479 14.5079C46.9479 12.8991 45.787 11.5948 44.3551 11.5948C42.9231 11.5948 41.7623 12.8991 41.7623 14.5079C41.7623 16.1168 42.9231 17.4211 44.3551 17.4211Z" fill="#FEFBF6"/>
<path d="M54.3944 18.2781V16.1231C54.3944 15.348 54.4193 14.6927 54.4693 14.1571C54.5192 13.6152 54.6098 13.1489 54.7409 12.7582C54.872 12.3676 55.0562 12.0746 55.2934 11.8792C55.5307 11.6776 55.8366 11.5768 56.2112 11.5768C56.4859 11.5768 56.8012 11.6366 57.157 11.7564C57.5192 11.8698 57.747 11.9265 57.8407 11.9265C58.0904 11.9265 58.3214 11.8257 58.5337 11.624C58.7522 11.4161 58.8615 11.1546 58.8615 10.8395C58.8615 10.3921 58.6086 10.033 58.1029 9.76203C57.5972 9.49108 57.0759 9.35561 56.539 9.35561C56.002 9.35561 55.6127 9.55164 55.2466 9.76203C54.8997 9.96138 54.7409 10.0832 54.3944 10.5965C54.2148 10.8624 54.1774 10.5972 54.1337 10.2873C54.1054 10.0872 54.0745 9.86837 54.001 9.76203C53.8137 9.49108 53.5078 9.35561 53.0833 9.35561C52.2529 9.35561 51.8377 9.93531 51.8377 11.0947V18.2781C51.8377 18.7948 51.9563 19.1854 52.1936 19.4501C52.4308 19.7147 52.7336 19.8471 53.102 19.8471C53.4766 19.8471 53.7856 19.7179 54.0291 19.4595C54.2726 19.1949 54.3944 18.8011 54.3944 18.2781Z" fill="#FEFBF6"/>
<path fill-rule="evenodd" clip-rule="evenodd" d="M72.6094 15.2346H67.6084C67.6147 15.8206 67.7302 16.3373 67.9549 16.7847C68.186 17.2321 68.4558 17.4463 68.8304 17.6732C69.2112 17.9 69.6585 17.9436 70.0059 17.9567C70.3533 17.9699 70.5838 17.9596 70.8685 17.92C71.1532 17.8804 71.4525 17.8358 71.7133 17.7202C71.9741 17.6046 72.2527 17.4237 72.4524 17.2473C72.5461 17.1645 72.6339 17.057 72.7336 16.9349C72.8465 16.7967 72.9746 16.6398 73.1437 16.4792C73.2748 16.3657 73.5368 16.282 73.7803 16.282C74.0425 16.282 74.1609 16.3751 74.3232 16.52C74.4855 16.665 74.5667 16.8698 74.5667 17.1344C74.5667 17.3676 74.4761 17.6417 74.2951 17.9567C74.114 18.2655 73.8393 18.5648 73.471 18.8546C73.1088 19.1382 72.65 19.3745 72.0943 19.5635C71.5449 19.7525 70.9112 19.8471 70.1932 19.8471C68.5512 19.8471 67.2744 19.3745 66.3629 18.4293C65.4514 17.4841 64.9956 16.2018 64.9956 14.5824C64.9956 13.82 65.108 13.1143 65.3327 12.4652C65.5575 11.8099 65.8853 11.2491 66.3161 10.7828C66.7469 10.3165 67.2775 9.96052 67.9081 9.71477C68.5387 9.46273 69.238 9.3367 70.0059 9.3367C71.0048 9.3367 71.8602 9.55094 72.5719 9.97942C73.2899 10.4016 73.8268 10.9498 74.1827 11.624C74.5386 12.2983 74.7165 12.9851 74.7165 13.6845C74.7165 14.3335 74.5323 14.7557 74.164 14.9511C73.7956 15.1401 73.2774 15.2346 72.6094 15.2346ZM67.6084 13.7696H72.2441C72.1817 12.8874 71.9445 12.2289 71.5324 11.7942C71.1266 11.3531 70.5896 11.1325 69.9216 11.1325C69.2848 11.1325 68.7603 11.3562 68.3483 11.8036C67.9425 12.2447 67.6958 12.9 67.6084 13.7696Z" fill="#FEFBF6"/>
<path fill-rule="evenodd" clip-rule="evenodd" d="M86 11.2271V18.7223C86.002 18.8367 85.9913 19.0836 85.9846 19.2356C85.9813 19.3116 85.9791 19.3638 85.9799 19.3638C85.9799 22.2182 83.6872 24.5322 80.859 24.5322C79.5133 24.5322 78.2888 24.0083 77.3749 23.1516C77.096 22.9158 76.9186 22.5617 76.9186 22.1657C76.9186 21.4558 77.4888 20.8803 78.1922 20.8803C78.5951 20.8803 78.8566 21.0707 79.1484 21.2833C79.2159 21.3324 79.285 21.3828 79.3579 21.4322C79.766 21.7092 80.2815 21.9613 80.859 21.9613C82.2737 21.9613 83.4217 20.8094 83.4326 19.3842C83.4331 19.3155 83.4345 19.2127 83.4359 19.1574L83.4359 19.157C83.4423 18.9055 83.4537 18.4621 83.4621 17.8905C83.0688 18.4451 82.613 18.8672 82.0948 19.1571C81.5829 19.4469 80.971 19.5919 80.2593 19.5919C79.4039 19.5919 78.6547 19.3713 78.0116 18.9302C77.3748 18.4892 76.8847 17.8716 76.5413 17.0777C76.1979 16.2838 76.0263 15.3669 76.0263 14.3272C76.0263 13.5522 76.1293 12.8528 76.3353 12.2289C76.5476 11.6051 76.8473 11.079 77.2343 10.6505C77.6214 10.222 78.0678 9.90066 78.5736 9.68642C79.0793 9.46588 79.6349 9.35561 80.2405 9.35561C80.9648 9.35561 81.5922 9.49738 82.1229 9.78094C82.6536 10.0582 83.1468 10.4961 83.6026 11.0947V10.745C83.6026 10.2976 83.7118 9.95107 83.9304 9.70532C84.1489 9.45958 84.4298 9.3367 84.7732 9.3367C85.2664 9.3367 85.5942 9.50053 85.7565 9.82819C85.9189 10.1496 86 10.6158 86 11.2271ZM80.8212 17.4022C82.2532 17.4022 83.414 16.0979 83.414 14.489C83.414 12.8802 82.2532 11.5759 80.8212 11.5759C79.3893 11.5759 78.2284 12.8802 78.2284 14.489C78.2284 16.0979 79.3893 17.4022 80.8212 17.4022Z" fill="#FEFBF6"/>
<path d="M62.7705 6.87059C62.7705 7.56875 62.2076 8.13473 61.5131 8.13473C60.8187 8.13473 60.2558 7.56875 60.2558 6.87059C60.2558 6.17242 60.8187 5.60645 61.5131 5.60645C62.2076 5.60645 62.7705 6.17242 62.7705 6.87059Z" fill="#FEFBF6"/>
</svg>
